<svg id="Capa_1" enable-background="new 0 0 512 512" height="512" viewBox="0 0 512 512" width="512" xmlns="http://www.w3.org/2000/svg">
  <g id="Stockholm-icons-/-General-/-Search" stroke="none" stroke-width="1" fill="none" fill-rule="evenodd">
   <rect id="bound" x="0" y="0" width="24" height="24"></rect>
    <path d="m467 211h-166v-166c0-24.853-20.147-45-45-45s-45 20.147-45 45v166h-166c-24.853 0-45 20.147-45 45s20.147 45 45 45h166v166c0 24.853 20.147 45 45 45s45-20.147 45-45v-166h166c24.853 0 45-20.147 45-45s-20.147-45-45-45z" id="Path-2" fill="#000000" fill-rule="nonzero" opacity="0.3"></path>
    <path d="m467 211h-166v-166c0-24.853-20.147-45-45-45s-45 20.147-45 45v166h-166c-24.853 0-45 20.147-45 45s20.147 45 45 45h166v166c0 24.853 20.147 45 45 45s45-20.147 45-45v-166h166c24.853 0 45-20.147 45-45s-20.147-45-45-45z" id="Path" fill="#000000" fill-rule="nonzero"></path>
  </g>
</svg>
