<svg id="Layer_1" enable-background="new 0 0 64 64" height="64" viewBox="0 0 64 64" width="64" xmlns="http://www.w3.org/2000/svg"><g fill="#b5b5c3"><path d="m32.334 55.15c2.902 0 5.254-2.352 5.254-5.254h-10.509c0 2.902 2.352 5.254 5.255 5.254z"/><path d="m34.961 9.611c0-1.45-1.176-2.627-2.627-2.627-1.452 0-2.628 1.177-2.628 2.627-6.771 0-12.26 5.49-12.26 12.261v16.515c0 .471-.134 1.016-.351 1.54l26.625-26.626c-2.225-2.275-5.325-3.69-8.759-3.69z"/><path d="m57.414 6.586c-.781-.781-2.047-.781-2.828 0l-48 48c-.781.781-.781 2.047 0 2.828.39.391.902.586 1.414.586s1.024-.195 1.414-.586l10.146-10.146h25.107 7.809s0-1.176 0-2.627c0-1.45-1.176-2.628-2.627-2.628s-2.627-2.176-2.627-3.627v-16.515c0-.71-.068-1.404-.185-2.08l10.377-10.377c.781-.781.781-2.047 0-2.828z"/></g></svg>