<svg id="Capa_1" enable-background="new 0 0 512 512" viewBox="0 0 512 512" xmlns="http://www.w3.org/2000/svg"><g><g><g><path d="m60.874 426.169h254.398c11.655 0 20.328-10.769 17.845-22.156-15.626-71.655-79.06-122.746-152.399-122.746h-14.711c-64.751 0-120.757 45.109-134.554 108.373-4.094 18.775 10.205 36.529 29.421 36.529z" fill="#00dfff"/></g></g><g><g><path d="m333.116 404.013c-11.267-51.665-47.39-92.636-94.159-111.476 22.451 21.031 38.806 48.773 45.74 80.571 2.483 11.387-6.19 22.156-17.845 22.156h-236.082c-.473 16.546 12.823 30.905 30.104 30.905h254.398c11.654 0 20.328-10.769 17.844-22.156z" fill="#00cfff"/></g></g><g><g><path d="m188.483 2.56 13.231 22.253c.735 1.235 1.945 2.115 3.347 2.432l25.252 5.707c3.874.875 5.401 5.576 2.782 8.561l-17.075 19.46c-.948 1.08-1.41 2.503-1.278 3.934l2.376 25.78c.365 3.955-3.634 6.86-7.283 5.291l-23.785-10.226c-1.32-.568-2.816-.568-4.137 0l-23.783 10.226c-3.649 1.569-7.647-1.336-7.283-5.291l2.376-25.78c.132-1.431-.33-2.854-1.278-3.934l-17.075-19.46c-2.619-2.985-1.092-7.686 2.782-8.561l25.252-5.707c1.402-.317 2.612-1.196 3.347-2.432l13.23-22.253c2.03-3.413 6.972-3.413 9.002 0z" fill="#ffc800"/></g></g><g><g><path d="m50.262 19.546 10.836 18.226c.602 1.012 1.593 1.732 2.741 1.991l20.682 4.674c3.173.717 4.424 4.567 2.278 7.012l-13.984 15.937c-.776.885-1.155 2.05-1.047 3.222l1.946 21.114c.299 3.239-2.976 5.618-5.965 4.334l-19.479-8.375c-1.081-.465-2.307-.465-3.388 0l-19.479 8.375c-2.988 1.285-6.263-1.095-5.965-4.334l1.946-21.114c.108-1.172-.271-2.337-1.047-3.222l-13.985-15.938c-2.145-2.445-.894-6.295 2.278-7.012l20.682-4.674c1.148-.259 2.139-.98 2.741-1.991l10.836-18.226c1.663-2.795 5.711-2.795 7.373.001z" fill="#ffc800"/></g></g><g><g><path d="m310.942 19.546-10.836 18.226c-.602 1.012-1.593 1.732-2.741 1.991l-20.682 4.674c-3.173.717-4.424 4.567-2.278 7.012l13.985 15.938c.776.885 1.155 2.05 1.047 3.222l-1.946 21.114c-.299 3.239 2.976 5.618 5.965 4.334l19.479-8.375c1.081-.465 2.307-.465 3.388 0l19.479 8.375c2.988 1.285 6.263-1.095 5.965-4.334l-1.946-21.114c-.108-1.172.271-2.337 1.047-3.222l13.985-15.938c2.145-2.445.894-6.295-2.278-7.012l-20.682-4.674c-1.148-.259-2.139-.98-2.741-1.991l-10.836-18.226c-1.663-2.796-5.711-2.796-7.374 0z" fill="#ffc800"/></g></g><g><g><path d="m506.717 362.502c0-11.795-9.562-21.357-21.357-21.357l-77.622-.119c-10.17-.016-18.407-8.265-18.407-18.435v-55.153c0-11.376-5.837-21.956-15.463-28.022-7.683-4.842-17.873-.97-20.425 7.746l-30.846 105.328c-4.943 16.878-20.423 28.474-38.009 28.474h-21.099v110.179h32.632c17.259 0 34.426 3.254 50.253 10.136 15.759 6.852 32.758 10.387 49.939 10.387l89.047.334c11.795 0 21.357-9.561 21.357-21.357 0-11.795-9.562-21.356-21.357-21.356 11.795 0 21.357-9.562 21.357-21.357 0-11.796-9.562-21.357-21.357-21.357 11.795 0 21.357-9.562 21.357-21.357 0-11.795-9.562-21.357-21.357-21.357 11.795 0 21.357-9.562 21.357-21.357zm0 0c0-11.795-9.562-21.357-21.357-21.357l-77.622-.119c-10.17-.016-18.407-8.265-18.407-18.435v-55.153c0-11.376-5.837-21.956-15.463-28.022-7.683-4.842-17.873-.97-20.425 7.746l-30.846 105.328c-4.943 16.878-20.423 28.474-38.009 28.474h-21.099v110.179h32.632c17.259 0 34.426 3.254 50.253 10.136 15.759 6.852 32.758 10.387 49.939 10.387l89.047.334c11.795 0 21.357-9.561 21.357-21.357 0-11.795-9.562-21.356-21.357-21.356 11.795 0 21.357-9.562 21.357-21.357 0-11.796-9.562-21.357-21.357-21.357 11.795 0 21.357-9.562 21.357-21.357 0-11.795-9.562-21.357-21.357-21.357 11.795 0 21.357-9.562 21.357-21.357zm-21.357 21.357h-25.364m25.364 42.714h-25.364m25.364 42.714h-25.364" fill="#ffd89e"/></g></g><g><g><path d="m454.455 341.145c11.795 0 21.357 9.562 21.357 21.357 0 3.37-.781 6.558-2.171 9.393-3.726 7.597-3.726 16.332 0 23.929 1.39 2.835 2.171 6.022 2.171 9.392s-.781 6.558-2.171 9.393c-3.726 7.597-3.726 16.332 0 23.929 1.39 2.834 2.171 6.022 2.171 9.392 0 .4-.011.796-.033 1.191-.572 10.408-9.534 18.385-19.958 18.385h-192.332v23.638h32.631c17.259 0 34.426 3.254 50.254 10.136 15.758 6.852 32.757 10.387 49.938 10.387l89.048.333c11.795 0 21.357-9.561 21.357-21.357 0-11.795-9.562-21.356-21.357-21.356 11.795 0 21.357-9.562 21.357-21.357s-9.562-21.357-21.357-21.357c11.795 0 21.357-9.562 21.357-21.357s-9.562-21.357-21.357-21.357c11.795 0 21.357-9.562 21.357-21.357s-9.562-21.357-21.357-21.357" fill="#ffc479"/></g></g><g><g><path d="m454.455 383.859h-25.364" fill="#ffd89e"/></g></g><g><path d="m454.455 426.573h-25.364" fill="#ffd89e"/></g><g><g><path d="m260.414 507.588h-51.598c-4.543 0-8.227-3.683-8.227-8.227v-130.783c0-4.543 3.683-8.227 8.227-8.227h51.598c4.543 0 8.227 3.683 8.227 8.227v130.783c-.001 4.544-3.684 8.227-8.227 8.227z" fill="#00caa3"/></g></g><g><g><g><circle cx="180.717" cy="213.654" fill="#ffd89e" r="74.825"/></g></g><g><g><path d="m180.717 138.829c-5.299 0-10.465.559-15.453 1.607 33.909 7.121 59.372 37.192 59.372 73.218s-25.463 66.097-59.372 73.218c4.987 1.047 10.154 1.606 15.453 1.606 41.325 0 74.825-33.5 74.825-74.824s-33.5-74.825-74.825-74.825z" fill="#ffc479"/></g></g></g></g><g/><g/><g/><g/><g/><g/><g/><g/><g/><g/><g/><g/><g/><g/><g/></svg>