<svg id="Capa_1" enable-background="new 0 0 600.258 600.258" height="512" viewBox="0 0 600.258 600.258" width="512" xmlns="http://www.w3.org/2000/svg">
    <g fill="lightgray">
      <g>
        <g id="Page-1_31_">
          <g id="_x30_32---Search-Book">
            <g clip-rule="evenodd" fill-rule="evenodd">
              <path id="Path_117_" d="m89.965 79.969h119.953c5.521 0 9.996-4.475 9.996-9.996s-4.475-9.996-9.996-9.996h-119.953c-5.521 0-9.996 4.475-9.996 9.996 0 5.52 4.475 9.996 9.996 9.996z"/>
              <path id="Path_116_" d="m89.965 139.945h119.953c5.521 0 9.996-4.475 9.996-9.996s-4.475-9.996-9.996-9.996h-119.953c-5.521 0-9.996 4.475-9.996 9.996s4.475 9.996 9.996 9.996z"/>
              <path id="Path_115_" d="m89.965 199.922h119.953c5.521 0 9.996-4.475 9.996-9.996s-4.475-9.996-9.996-9.996h-119.953c-5.521 0-9.996 4.475-9.996 9.996s4.475 9.996 9.996 9.996z"/>
              <path id="Path_114_" d="m189.926 249.902c0-5.521-4.475-9.996-9.996-9.996h-89.965c-5.521 0-9.996 4.475-9.996 9.996s4.475 9.996 9.996 9.996h89.965c5.52 0 9.996-4.475 9.996-9.996z"/>
              <path id="Path_113_" d="m149.941 299.883h-59.976c-5.521 0-9.996 4.475-9.996 9.996s4.475 9.996 9.996 9.996h59.977c5.521 0 9.996-4.475 9.996-9.996s-4.476-9.996-9.997-9.996z"/>
              <path id="Path_112_" d="m289.887 79.969h119.953c5.521 0 9.996-4.475 9.996-9.996s-4.475-9.996-9.996-9.996h-119.953c-5.521 0-9.996 4.475-9.996 9.996 0 5.52 4.475 9.996 9.996 9.996z"/>
              <path id="Path_111_" d="m289.887 139.945h119.953c5.521 0 9.996-4.475 9.996-9.996s-4.475-9.996-9.996-9.996h-119.953c-5.521 0-9.996 4.475-9.996 9.996s4.475 9.996 9.996 9.996z"/>
            </g>
            <path id="Shape_74_" d="m458.821 260.898c-54.642-54.59-143.189-54.562-197.796.063s-54.607 143.171 0 197.796 143.154 54.653 197.796.063c54.581-54.684 54.581-143.237 0-197.922zm-14.145 183.778c-46.833 46.789-122.724 46.765-169.528-.053s-46.804-122.71 0-169.528 122.695-46.842 169.528-.053c46.769 46.874 46.769 122.761 0 169.634z"/>
            <path id="Path_110_" clip-rule="evenodd" d="m359.859 259.898c-26.526-.073-51.978 10.47-70.682 29.279-2.599 2.51-3.641 6.226-2.726 9.721s3.644 6.224 7.139 7.139 7.211-.127 9.721-2.726c14.965-15.046 35.327-23.479 56.548-23.421 5.521 0 9.996-4.475 9.996-9.996s-4.475-9.996-9.996-9.996z"/>
            <path id="Shape_73_" d="m542.218 485.67c-5.041-5.012-12.369-6.958-19.232-5.108l-16.603-16.604c46.61-65.717 43.924-154.39-6.577-217.165v-186.816c0-16.562-13.426-29.988-29.988-29.988h-9.996v-9.996c-.002-11.042-8.953-19.993-19.994-19.993h-159.937c-11.482-.003-22.409 4.939-29.988 13.565-.55-.63-1.13-1.25-1.729-1.839-7.477-7.526-17.652-11.748-28.26-11.726h-159.937c-11.042 0-19.993 8.951-19.993 19.992v9.996h-9.996c-16.562 0-29.988 13.427-29.988 29.989v329.871c0 16.562 13.426 29.988 29.988 29.988h159.238c.455.063.903.167 1.339.31 18.821 53.103 61.479 94.29 115.209 111.238s112.3 7.691 158.184-25.002l16.603 16.604c-1.848 6.863.098 14.191 5.108 19.232l45.842 45.832c10.039 10.394 24.905 14.563 38.885 10.904s24.897-14.577 28.556-28.556c3.659-13.98-.509-28.846-10.904-38.885zm-72.402-435.689c5.521 0 9.996 4.475 9.996 9.996v166.075c-6.282-5.719-12.963-10.983-19.992-15.754v-160.317zm-189.925-29.989h159.937v178.84c-57.725-28.564-126.297-24.194-179.93 11.466v-170.314c0-11.041 8.951-19.992 19.993-19.992zm-219.914 0h159.937c11.041 0 19.992 8.951 19.992 19.992v186.067c-2.429 2.189-4.938 4.238-7.277 6.577-33.764 33.723-52.701 79.509-52.619 127.23h-120.033zm-29.989 379.852c-5.521 0-9.996-4.475-9.996-9.996v-329.871c0-5.521 4.475-9.996 9.996-9.996h9.996v309.879c0 11.041 8.951 19.992 19.992 19.992h121.253c.773 6.723 1.921 13.397 3.439 19.992zm216.776 73.111c-62.457-62.46-62.455-163.726.004-226.184s163.725-62.458 226.184 0 62.461 163.723.004 226.184c-62.507 62.353-163.687 62.353-226.192 0zm240.326 14.135c2.389-2.389 4.488-4.998 6.717-7.437l13.075 13.075-14.154 14.154-13.075-13.075c2.489-2.229 5.048-4.328 7.437-6.717zm86.826 86.826c-7.909 7.555-20.36 7.555-28.269 0l-45.842-45.842 28.279-28.269 45.832 45.842c7.804 7.807 7.804 20.462 0 28.269z"/>
          </g>
        </g>
      </g>
    </g>
  </svg>
  