<svg id="Capa_1" enable-background="new 0 0 507.926 507.926" height="512" viewBox="0 0 507.926 507.926" width="512" xmlns="http://www.w3.org/2000/svg">
  <g fill="#a0a0a0"> <!-- Muted rengi: a0a0a0 -->
    <path d="m161.618 57.722h-138.523c-12.751 0-23.087 10.336-23.087 23.087v138.523c0 12.751 10.336 23.087 23.087 23.087h138.523c12.751 0 23.087-10.336 23.087-23.087v-138.523c0-12.751-10.336-23.087-23.087-23.087zm-23.087 138.523h-92.349v-92.349h92.349z"/>
    <path d="m484.839 126.983h-230.872c-12.751 0-23.087 10.336-23.087 23.087s10.336 23.087 23.087 23.087h230.872c12.751 0 23.087-10.336 23.087-23.087 0-12.75-10.337-23.087-23.087-23.087z"/>
    <path d="m484.839 357.855h-230.872c-12.751 0-23.087 10.337-23.087 23.087s10.336 23.087 23.087 23.087h230.872c12.751 0 23.087-10.337 23.087-23.087s-10.337-23.087-23.087-23.087z"/>
    <path d="m145.457 318.353-76.857 75.934-28.905-30.013c-8.868-9.168-23.489-9.411-32.657-.543-9.168 8.868-9.411 23.489-.543 32.657l45.112 46.89c4.302 4.389 10.177 6.882 16.323 6.926h.277c6.053-.019 11.857-2.415 16.161-6.672l93.411-92.349c9.664-8.317 10.756-22.895 2.439-32.559s-22.895-10.756-32.559-2.439c-.781.673-1.517 1.397-2.202 2.168z"/>
  </g>
</svg>
