<svg id="Layer_1" viewBox="0 0 64 64" xmlns="http://www.w3.org/2000/svg" data-name="Layer 1"><path d="m51.35 13v-1.85a3.15 3.15 0 0 0 -1.57-2.73 3.14 3.14 0 0 0 -3.14 0 3.14 3.14 0 0 0 -1.58 2.73v1.85a2.76 2.76 0 0 0 1.38 2.39 3.53 3.53 0 0 0 3.53 0 2.74 2.74 0 0 0 1.38-2.39z" fill="#ebeef2"/><path d="m55.66 26.67h-14.9a.34.34 0 0 1 -.34-.34v-1.33a7.79 7.79 0 0 1 7.79-7.79 7.79 7.79 0 0 1 7.79 7.79v1.37a.34.34 0 0 1 -.34.3z" fill="#dcdfe2"/><path d="m18.94 42.34v-1.86a3.15 3.15 0 0 0 -1.58-2.73 3.14 3.14 0 0 0 -3.14 0 3.16 3.16 0 0 0 -1.57 2.73v1.86a2.76 2.76 0 0 0 1.35 2.39 3.53 3.53 0 0 0 3.53 0 2.78 2.78 0 0 0 1.41-2.39z" fill="#ebeef2"/><path d="m23.24 56h-14.9a.34.34 0 0 1 -.34-.34v-1.37a7.79 7.79 0 0 1 7.79-7.79 7.79 7.79 0 0 1 7.79 7.79v1.37a.34.34 0 0 1 -.34.34z" fill="#dcdfe2"/><g fill="#4fbe9f"><path d="m27.94 56h7.93c11.13 0 20.13-5 20.13-16.13v-9a1 1 0 0 0 -1.73-.8l-10.16 8.68a.64.64 0 0 0 .41 1.12h3c0 6.4-5.21 8.61-11.61 8.61h-5.2c-2.46 0-4.45 1-4.45 3.45v2.39a1.68 1.68 0 0 0 1.68 1.68z"/><path d="m36.06 8h-7.93c-11.13 0-20.13 5-20.13 16.13v9a1 1 0 0 0 1.73.8l10.16-8.66a.64.64 0 0 0 -.41-1.12h-3c0-6.4 5.21-8.61 11.61-8.61h5.16c2.46 0 4.45-1 4.45-3.45v-2.41a1.68 1.68 0 0 0 -1.64-1.68z"/></g></svg>