<?xml version="1.0" encoding="UTF-8"?>
<svg xmlns="http://www.w3.org/2000/svg" viewBox="0 0 32 32" width="512" height="512"><g id="feedback"><path d="M18.7866,10.5762a1.0022,1.0022,0,0,1-.4653-.1148L16,9.2407l-2.3213,1.2207a1,1,0,0,1-1.4512-1.0542l.4434-2.5849-1.8774-1.83a1,1,0,0,1,.5542-1.7061l2.5952-.3769L15.103.5576a1.0418,1.0418,0,0,1,1.794,0l1.16,2.3516,2.5952.3769a1,1,0,0,1,.5542,1.7061l-1.8774,1.83.4434,2.5849a1,1,0,0,1-.9859,1.169ZM16,7.1108a.9978.9978,0,0,1,.4653.1148l.9932.5224-.19-1.1059a1.0019,1.0019,0,0,1,.288-.8853l.8033-.7827L17.25,4.813a1,1,0,0,1-.7534-.5474L16,3.26l-.4961,1.0058a1,1,0,0,1-.7534.5474l-1.11.1611.8033.7827a1.0019,1.0019,0,0,1,.288.8853l-.19,1.1059.9932-.5224A.9978.9978,0,0,1,16,7.1108Z"/><path d="M29.2778,13.5322a1.0036,1.0036,0,0,1-.4653-.1147l-2.3213-1.22-2.3208,1.22a1,1,0,0,1-1.4512-1.0542l.4434-2.585-1.8779-1.83a1,1,0,0,1,.5547-1.7056l2.5947-.377,1.16-2.3515a1.041,1.041,0,0,1,1.7935,0l1.1611,2.3515,2.5948.377a1,1,0,0,1,.5542,1.706L29.82,9.7783l.4434,2.585a1,1,0,0,1-.9859,1.1689Zm-2.7866-3.4648a.9989.9989,0,0,1,.4653.1147l.9932.522-.19-1.106a1.0015,1.0015,0,0,1,.2881-.8852l.8032-.7827-1.11-.1612a.9985.9985,0,0,1-.7529-.5473l-.4971-1.0059-.4961,1.0059a1,1,0,0,1-.7534.5473l-1.11.1612.8033.7832a1.0017,1.0017,0,0,1,.2876.8847l-.19,1.106.9932-.522A.9989.9989,0,0,1,26.4912,10.0674Z"/><path d="M2.7222,13.5322a1,1,0,0,1-.9859-1.1689L2.18,9.7783.3022,7.9482a1,1,0,0,1,.5542-1.706l2.5948-.377L4.6123,3.5137a1,1,0,0,1,.8965-.5576h0a1,1,0,0,1,.897.5576l1.16,2.3515,2.5947.377a1,1,0,0,1,.5547,1.7056l-1.8779,1.83.4434,2.585A1,1,0,0,1,7.83,13.4175l-2.3208-1.22-2.3213,1.22A1.0036,1.0036,0,0,1,2.7222,13.5322ZM3.1489,7.93l.8032.7827a1.0015,1.0015,0,0,1,.2881.8852l-.19,1.106.9932-.522a.999.999,0,0,1,.9306,0l.9932.522-.19-1.106a1.0017,1.0017,0,0,1,.2876-.8847L7.8682,7.93l-1.11-.1612a1,1,0,0,1-.7534-.5473L5.5088,6.2158,5.0117,7.2217a.9985.9985,0,0,1-.7529.5473Z"/><path d="M16,32a.9967.9967,0,0,1-.707-.293L12.5859,29H6a3.0033,3.0033,0,0,1-3-3V18a3.0033,3.0033,0,0,1,3-3H26a3.0033,3.0033,0,0,1,3,3v8a3.0033,3.0033,0,0,1-3,3H19.4141L16.707,31.707A.9967.9967,0,0,1,16,32ZM6,17a1.0013,1.0013,0,0,0-1,1v8a1.0013,1.0013,0,0,0,1,1h7a1,1,0,0,1,.707.293L16,29.5859l2.293-2.2929A1,1,0,0,1,19,27h7a1.0013,1.0013,0,0,0,1-1V18a1.0013,1.0013,0,0,0-1-1Z"/><path d="M24,21H8a1,1,0,0,1,0-2H24a1,1,0,0,1,0,2Z"/><path d="M24,25H8a1,1,0,0,1,0-2H24a1,1,0,0,1,0,2Z"/></g></svg>
