<svg height="512pt" viewBox="-31 0 512 512" width="512pt" xmlns="http://www.w3.org/2000/svg"><path d="m225 482c-28.546875 0-55.765625-5.554688-80.914062-15.296875l-19.691407 19.691406c-4.292969 4.292969-5.582031 10.738281-3.25 16.347657 2.3125 5.609374 7.792969 9.257812 13.855469 9.257812h180c6.0625 0 11.542969-3.648438 13.855469-9.257812 2.332031-5.609376 1.042969-12.054688-3.25-16.347657l-19.691407-19.691406c-25.148437 9.742187-52.367187 15.296875-80.914062 15.296875zm0 0"/><path d="m15 271h255v-45c0-8.285156-6.714844-15-15-15h-225c-16.570312 0-30 13.429688-30 30v15c0 8.285156 6.714844 15 15 15zm0 0"/><path d="m450 256v-15c0-16.570312-13.429688-30-30-30h-45c-8.285156 0-15 6.714844-15 15v45h75c8.285156 0 15-6.714844 15-15zm0 0"/><path d="m414.550781 301h-57.3125c-6.214843 17.421875-22.707031 30-42.238281 30s-36.023438-12.578125-42.238281-30h-237.3125c20.398437 85.863281 97.539062 151 189.550781 151s169.152344-65.136719 189.550781-151zm0 0"/><path d="m415.605469 4.394531c-5.859375-5.859375-15.351563-5.859375-21.210938 0l-54.121093 55.109375c.246093.886719.589843 1.722656.8125 2.617188 11.105468 1.039062 21.816406 3.292968 31.84375 7.160156l42.675781-43.675781c5.859375-5.859375 5.859375-15.351563 0-21.210938zm0 0"/><path d="m310.113281 63.011719c-11.820312-35.910157-45.246093-63.011719-85.113281-63.011719s-73.292969 27.101562-85.113281 63.011719c36.925781 6.21875 67.8125 29.3125 85.113281 61.101562 17.300781-31.789062 48.1875-54.882812 85.113281-61.101562zm0 0"/><path d="m315 301c8.285156 0 15-6.714844 15-15 0-3.082031 0-63.25 0-60 0-24.851562 20.148438-45 45-45h45c0-49.707031-40.292969-90-90-90s-90 40.292969-90 90h15c24.851562 0 45 20.148438 45 45 0 3.109375 0 63.019531 0 60 0 8.285156 6.714844 15 15 15zm0 0"/><path d="m30 181h180c0-49.707031-40.292969-90-90-90s-90 40.292969-90 90zm0 0"/></svg>