<svg id="&#x421;&#x43B;&#x43E;&#x439;_1" height="512" viewBox="0 0 128 128" width="512" xmlns="http://www.w3.org/2000/svg"><path d="m64 76.82a2 2 0 0 1 -.85-.19l-62-29.17a2 2 0 0 1 0-3.62l62-29.18a2 2 0 0 1 1.7 0l62 29.18a2 2 0 0 1 0 3.62l-62 29.17a2 2 0 0 1 -.85.19zm-57.3-31.17 57.3 27 57.3-27-57.3-26.97z"/><path d="m24 80a2 2 0 0 1 -2-2v-21a2 2 0 0 1 4 0v21a2 2 0 0 1 -2 2z"/><path d="m104 80a2 2 0 0 1 -2-2v-21a2 2 0 0 1 4 0v21a2 2 0 0 1 -2 2z"/><path d="m64 100.53c-22.62 0-42-12.39-42-22.53a2 2 0 0 1 4 0c0 6.34 16 18.53 38 18.53s38-12.19 38-18.53a2 2 0 0 1 4 0c0 10.14-19.38 22.53-42 22.53z"/><path d="m94 101a2 2 0 0 1 -2-2v-37.76l-28.89-14.45a2 2 0 1 1 1.78-3.58l30 15a2 2 0 0 1 1.11 1.79v39a2 2 0 0 1 -2 2z"/><path d="m94 110a6 6 0 1 1 6-6 6 6 0 0 1 -6 6zm0-8a2 2 0 1 0 2 2 2 2 0 0 0 -2-2z"/><path d="m97 122h-6a2 2 0 0 1 -2-2.17l1-12a2 2 0 0 1 4 .15 2 2 0 0 1 4-.15l1 12a2 2 0 0 1 -2 2.17zm-3.83-4h1.66l-.83-9.83a.76.76 0 0 1 0-.15.76.76 0 0 1 0 .15z"/></svg>