<svg enable-background="new 0 0 512 512" height="512" viewBox="0 0 512 512" width="512" xmlns="http://www.w3.org/2000/svg">
  <style>
    .st0 {
      fill: #ced4da; /* muted-light rengi */
    }
  </style>
  <g id="_x37_3_x2C__clear_x2C__cross_x2C__bad_review_x2C__cancel_x2C__magnifying_glass">
    <g id="XMLID_1433_">
      <g id="XMLID_1434_">
        <circle id="XMLID_1088_" class="st0" cx="46" cy="148.499" r="15"/>
        <circle id="XMLID_1087_" class="st0" cx="296" cy="458.499" r="15"/>
        <circle id="XMLID_1086_" class="st0" cx="416" cy="38.499" r="15"/>
        <circle id="XMLID_1085_" class="st0" cx="471" cy="93.499" r="10"/>
        <circle id="XMLID_1084_" class="st0" cx="471" cy="453.499" r="10"/>
        <circle id="XMLID_1083_" class="st0" cx="111" cy="43.499" r="10"/>
        <circle id="XMLID_1082_" class="st0" cx="61" cy="263.499" r="10"/>
        <path id="XMLID_1081_" class="st0" d="m166.585 329.629c-4.873-4.872-11.276-7.31-17.678-7.31-6.403 0-12.803 2.436-17.677 7.31-4.722 4.723-7.322 11-7.322 17.678 0 6.679 2.6 12.956 7.322 17.679l28.284 28.284c4.722 4.722 11 7.322 17.678 7.322 6.677 0 12.956-2.601 17.677-7.322 4.722-4.723 7.323-11 7.323-17.678s-2.601-12.956-7.322-17.677z"/>
        <path id="XMLID_1080_" class="st0" d="m52.181 423.338c-9.024 5.839-14.849 15.317-15.981 26.006s2.577 21.178 10.177 28.778 18.089 11.312 28.777 10.178c10.688-1.133 20.168-6.958 26.007-15.981l48.423-74.836-22.568-22.568z"/>
        <path id="XMLID_1438_" class="st0" d="m390.405 134.094c-22.954-22.954-53.472-35.595-85.934-35.595-32.461 0-62.98 12.641-85.934 35.595-47.384 47.385-47.384 124.484 0 171.869 47.385 47.383 124.484 47.383 171.868 0 47.384-47.385 47.384-124.484 0-171.869zm-25.869 135.87c1.953 1.952 1.953 5.118 0 7.07-.977.977-2.256 1.465-3.536 1.465s-2.559-.488-3.536-1.465l-51.464-51.464-51.464 51.464c-.977.977-2.256 1.465-3.536 1.465s-2.559-.488-3.536-1.465c-1.953-1.952-1.953-5.118 0-7.07l51.465-51.465-51.465-51.465c-1.953-1.952-1.953-5.118 0-7.07 1.953-1.953 5.118-1.953 7.071 0l51.465 51.465 51.464-51.464c1.953-1.953 5.118-1.953 7.071 0 1.953 1.952 1.953 5.118 0 7.07l-51.465 51.465z"/>
        <path id="XMLID_1435_" class="st0" d="m421.144 103.356c-31.165-31.164-72.6-48.327-116.673-48.327s-85.508 17.163-116.672 48.327c-31.165 31.165-48.328 72.6-48.328 116.673 0 44.068 17.16 85.499 48.318 116.663l.02.02c31.163 31.158 72.594 48.317 116.662 48.317 44.073 0 85.508-17.163 116.673-48.327 64.333-64.334 64.333-169.012 0-233.346zm-23.668 209.678c-25.642 25.642-59.323 38.462-93.005 38.462s-67.363-12.82-93.005-38.462c-51.283-51.283-51.283-134.727 0-186.01 24.843-24.843 57.873-38.524 93.005-38.524 35.133 0 68.163 13.682 93.005 38.524 51.283 51.283 51.283 134.726 0 186.01z"/>
      </g>
    </g>
  </g>
</svg>
