<?xml version="1.0" encoding="UTF-8"?>
<svg xmlns="http://www.w3.org/2000/svg" xmlns:xlink="http://www.w3.org/1999/xlink" version="1.1" id="Capa_1" x="0px" y="0px" viewBox="0 0 512 512" style="enable-background:new 0 0 512 512;" xml:space="preserve" width="512" height="512">
    <g>
        <polyline style="fill:none;stroke:#CCCCCC;stroke-width:20;stroke-linecap:round;stroke-linejoin:round;stroke-miterlimit:10;" points="226,251.591 256,281.591 286,311.591"/>
        <polyline style="fill:none;stroke:#CCCCCC;stroke-width:20;stroke-linecap:round;stroke-linejoin:round;stroke-miterlimit:10;" points="286,251.591 256,281.591 226,311.591"/>
        <path style="fill:none;stroke:#CCCCCC;stroke-width:20;stroke-linecap:round;stroke-linejoin:round;stroke-miterlimit:10;" d="M375.91,56.591H20c-5.52,0-10,4.47-10,10v350c0,5.52,4.48,10,10,10h64.22"/>
        <g>
            <g>
                <path d="M415.915,66.591c12.869,0,12.89-20,0-20C403.046,46.591,403.025,66.591,415.915,66.591L415.915,66.591z"/>
            </g>
        </g>
        <path style="fill:none;stroke:#CCCCCC;stroke-width:20;stroke-linecap:round;stroke-linejoin:round;stroke-miterlimit:10;" d="M139.28,426.591H492c5.52,0,10-4.48,10-10v-350c0-5.53-4.48-10-10-10h-36.085"/>
        <path style="fill:none;stroke:#CCCCCC;stroke-width:20;stroke-linejoin:round;stroke-miterlimit:10;" d="M197.24,368.631l-80.92,80.92c-7.81,7.81-20.48,7.81-28.29,0s-7.81-20.47,0-28.28l80.93-80.93"/>
        <line style="fill:none;stroke:#CCCCCC;stroke-width:20;stroke-linecap:round;stroke-linejoin:round;stroke-miterlimit:10;" x1="90" y1="96.589" x2="184.889" y2="96.589"/>
        <line style="fill:none;stroke:#CCCCCC;stroke-width:20;stroke-linejoin:round;stroke-miterlimit:10;" x1="10" y1="136.589" x2="502" y2="136.589"/>
        <g>
            <g>
                <path d="M50,106.589c12.869,0,12.89-20,0-20C37.131,86.589,37.11,106.589,50,106.589L50,106.589z"/>
            </g>
        </g>
        <circle style="fill:none;stroke:#CCCCCC;stroke-width:20;stroke-linejoin:round;stroke-miterlimit:10;" cx="256" cy="281.589" r="105"/>
        <circle style="fill:#CCCCCC;stroke:none;stroke-width:20;stroke-linejoin:round;stroke-miterlimit:10;" cx="90" cy="96.589" r="10"/>
        <circle style="fill:#CCCCCC;stroke:none;stroke-width:20;stroke-linejoin:round;stroke-miterlimit:10;" cx="184.889" cy="96.589" r="10"/>
    </g>
</svg>
