<svg enable-background="new 0 0 32 32" viewBox="0 0 32 32" xmlns="http://www.w3.org/2000/svg"><g id="Grid" display="none"/><g id="Webinar"/><g id="Assignment"/><g id="Article"/><g id="Audi"/><g id="Video_Tutorial"/><g id="Discussion_1_"/><g id="Resume"/><g id="Trophy"/><g id="Encyclopedia"/><g id="Smartphone"/><g id="Online_Lesson"/><g id="Webpage"/><g id="Search"/><g id="Registration"/><g id="Certificate_1_"/><g id="Review"><path d="m24.913 12.45-1.973.797c-.254.103-.521.155-.793.155-.583 0-1.147-.246-1.546-.675-.397-.426-.602-1.005-.561-1.588l.149-2.122-1.369-1.628c-.304-.362-.456-.805-.477-1.259h-12.973c-2.35 0-4.27 1.92-4.27 4.28v11.9c0 2.36 1.92 4.27 4.27 4.27h3.25l-.07 1.99c-.02.81.41 1.55 1.13 1.93.31.16.64.24.98.24.44 0 .88-.15 1.25-.43l4.96-3.73h5.72c2.35 0 4.27-1.91 4.27-4.27v-9.073zm-10.436 7.08h-5.249c-.497 0-.9-.403-.9-.9s.403-.9.9-.9h5.249c.497 0 .9.403.9.9s-.403.9-.9.9zm4.653-4.546h-9.9c-.497 0-.9-.403-.9-.9s.403-.9.9-.9h9.9c.497 0 .9.403.9.9s-.403.9-.9.9z" fill="#17a2b8"/><path d="m25.433 2.454 1.449 2.319 2.653.661c.44.11.613.642.322.99l-1.758 2.094.191 2.727c.032.452-.421.782-.842.612l-2.535-1.025-2.535 1.025c-.42.17-.874-.159-.842-.612l.191-2.727-1.758-2.094c-.292-.347-.118-.88.322-.99l2.653-.661 1.449-2.319c.239-.385.8-.385 1.04 0z" fill="#17a2b8"/></g><g id="Ebook"/><g id="Online_Class_1_"/><g id="Schedule"/><g id="Idea"/><g id="Login"/><g id="Science"/><g id="Time"/><g id="Business"/><g id="Projector"/></svg>