<svg id="Soup" enable-background="new 0 0 64 64" height="512" viewBox="0 0 64 64" width="512" xmlns="http://www.w3.org/2000/svg"><path d="m42.85577 58.64603v.86535c0 1.29787-.81111 2.46964-2.05495 2.86617-3.26282 1.04558-7.04847 1.62245-11.39284 1.62245-4.36252 0-8.14807-.57687-11.41088-1.62244-1.24384-.39653-2.07311-1.56831-2.07311-2.86617v-.88329c3.87577 1.47808 8.40047 2.23528 13.48399 2.23528s9.57213-.75719 13.44779-2.21735zm15.3047-25.72391c-1.24384 14.76381-9.31984 26.13861-28.75249 26.13861-19.43276 0-27.52669-11.3748-28.77054-26.13861 4.61481 4.63285 16.7467 7.01227 28.77054 7.01227 12.00568 0 24.13756-2.37942 28.75249-7.01227zm-47.24783 11.28468c-.61295-1.73059-2.00093-3.08259-3.10064-3.0465-1.11764.05402-1.51418 1.49613-.90133 3.22673.61295 1.71255 2.00104 3.0826 3.10064 3.02846 1.11764-.05403 1.51417-1.4782.90133-3.20869zm3.0465 5.28179c-.3786-.72111-1.17177-1.18982-1.78462-1.04557-.61295.16218-.79318.86524-.41469 1.6044.3786.721 1.17177 1.18971 1.78473 1.04546.61285-.14414.79307-.86525.41458-1.60429zm-4.65233-32.76337c.08538-.1109.1778-.21477.27022-.31863.43218-.48763 1.02456-1.15659 1.02456-2.39592 0-1.24725-.59854-1.91797-1.036-2.40736-.36088-.40401-.5783-.64695-.5783-1.20676 0-.56421.21829-.80803.57918-1.21116.12323-.13819.24646-.27638.36-.42426.30367-.39433.23061-.96031-.16372-1.26398-.39432-.30633-.96206-.23239-1.26397.1637-.08714.11267-.18132.21653-.2755.32216-.43834.48939-1.03864 1.16011-1.03864 2.41352 0 1.24725.59854 1.91797 1.036 2.40736.36088.40401.5783.64695.5783 1.20676 0 .55629-.21477.79835-.57125 1.2006-.11883.13467-.23766.27022-.34856.4137-.30367.39433-.23061.96031.16372 1.26398.16372.12675.35736.18748.54925.18748.27021.00001.53779-.12058.71471-.35119zm7.08126-1.09674c.16284-.21125.338-.40754.51228-.6047.73321-.82827 1.64599-1.85988 1.64599-3.79809 0-1.9523-.92334-2.98566-1.66535-3.81657-.67512-.75522-1.20764-1.352-1.20764-2.61685 0-1.27366.53341-1.86956 1.2094-2.62478.20861-.23325.41546-.46563.60734-.71473.30367-.39433.23061-.96031-.16372-1.26398-.39433-.30631-.96207-.23149-1.26398.16372-.1646.21389-.34416.41282-.52284.61262-.74377.83091-1.66887 1.86428-1.66887 3.82714 0 1.9523.92334 2.98654 1.66535 3.81745.67512.75522 1.20764 1.352 1.20764 2.61597 0 1.25517-.52636 1.85019-1.19268 2.60277-.20245.22797-.40313.45595-.59062.69976-.30367.39521-.23061.96119.16372 1.26398.1646.12675.35736.18748.54925.18748.27023.00001.53781-.12058.71473-.35119zm7.74318-1.09762c.12323-.1602.25614-.30895.38905-.45859.59326-.66984 1.33087-1.50251 1.33087-3.086 0-1.59405-.74641-2.43025-1.34583-3.10097-.51492-.57654-.88725-.99375-.88725-1.89949 0-.91365.37321-1.33087.88901-1.90741.16548-.18484.33008-.36969.48147-.56685.30367-.39433.23061-.96031-.16372-1.26398-.39521-.30719-.96207-.23149-1.26398.16372-.12499.16196-.26142.31335-.39697.46475-.60118.6716-1.34848 1.50691-1.34848 3.10977 0 1.59405.74641 2.42937 1.34583 3.10009.51492.57742.88725.99375.88725 1.90037 0 .89957-.36793 1.31503-.87757 1.89068-.15932.17956-.31864.36088-.46739.55365-.30367.39433-.23061.96031.16372 1.26398.16372.12675.35736.18748.54925.18748.27023 0 .53782-.12058.71474-.3512zm20.32891 12.69478-.16218.16229c.41458 1.06351.57676 2.14517.48664 3.24477-.14413 1.53222-1.40602 2.704-2.93835 2.704h-13.06929c-.95535 0-1.83864-.46871-2.39746-1.2258-.54089-.77513-.70306-1.78462-.3786-2.66791.41458-1.26188 1.02753-2.48768 1.78462-3.60532-11.59111.21631-21.84826 2.75802-25.30935 6.30932 4.23621 3.49717 14.69163 5.98475 26.93179 5.98475 12.22199 0 22.67742-2.48757 26.91374-6.00279-2.03702-2.05507-6.34541-3.78567-11.86156-4.90331zm-44.00294 1.44211c0 .7572.27033 1.4782.79318 2.18126 4.03795-4.07404 15.2685-6.81401 28.03138-6.83205.03609-.03609.07207-.07218.10815-.10816 1.92886-2.00104 4.0199-3.02846 6.18312-3.02846.81122 0 1.62244.14413 2.41562.43262l1.36993-1.53233c-3.10052-.37849-6.45345-.57686-9.95062-.57686-15.98961 0-28.95076 4.23632-28.95076 9.46398zm49.44702-6.66977-3.87577 3.73153c5.28179 1.18971 9.39191 2.97433 11.51904 5.1195.52273-.70307.79318-1.42406.79318-2.18126 0-2.61378-3.22673-4.95733-8.43645-6.66977zm12.54293-19.77776c-1.46081-1.42182-3.79813-1.32445-5.16146.19485l-18.30467 20.48147c-.31372.35102-.81128.42698-1.24572.24562-2.17207-.9067-4.5667-.55435-7.05589 2.02257-1.37031 1.41553-2.39142 3.13377-2.98221 4.85762-.2535.73968.29611 1.51143 1.07801 1.51143h13.06451c.59691 0 1.08906-.4671 1.14176-1.06169.08561-.96571-.10923-1.89583-.51315-2.77243-.19757-.42878-.14066-.93002.19929-1.25761l19.77953-19.06025c1.46082-1.42182 1.46082-3.75914 0-5.16158z"/></svg>