<svg height="512pt" viewBox="-31 0 512 512" width="512pt" xmlns="http://www.w3.org/2000/svg"><path d="m120.039062 75v15h30v-15c0-24.902344 20.097657-45 45-45h60c24.898438 0 45 20.097656 45 45v15h30v-15c0-41.398438-33.601562-75-75-75h-60c-41.402343 0-75 33.601562-75 75zm0 0"/><path d="m315.039062 165c-8.402343 0-15-6.601562-15-15v-60h-150v60c0 8.398438-6.601562 15-15 15-8.402343 0-15-6.601562-15-15v-60h-75c-7.800781 0-14.398437 6-15 13.800781l-29.9999995 392c-.3007815 4.199219 1.1992185 8.398438 3.8984375 11.398438 3 3 6.898438 4.800781 11.101562 4.800781h420c4.199219 0 8.101563-1.800781 11.097657-4.800781 2.703125-3 4.199219-7.199219 3.902343-11.398438l-30-392c-.601562-7.800781-7.203124-13.800781-15-13.800781h-75v60c0 8.398438-6.601562 15-15 15zm-105 77.199219v-15c0-8.289063 6.707032-15 15-15 8.289063 0 15 6.710937 15 15v15c50.699219 7.199219 90 51 90 103.800781 0 8.398438-6.601562 15-15 15h-180c-8.402343 0-15-6.601562-15-15 0-52.800781 39.296876-96.601562 90-103.800781zm135 148.800781c8.289063 0 15 6.710938 15 15s-6.710937 15-15 15h-240c-8.292968 0-15-6.710938-15-15s6.707032-15 15-15zm0 0"/><path d="m225.039062 271c-36.300781 0-66.601562 25.800781-73.5 60h147c-6.902343-34.199219-37.199218-60-73.5-60zm0 0"/></svg>