<svg height="512" viewBox="0 0 60 60" width="512" xmlns="http://www.w3.org/2000/svg"><g id="Page-1" fill="none" fill-rule="evenodd"><g id="060---Car-Checklist" fill="rgb(0,0,0)" fill-rule="nonzero"><path id="Shape" d="m54.375 12.219-4.3 3.441-.367-.367c-.3923789-.3789722-1.0160848-.3735524-1.4018186.0121814s-.3911536 1.0094397-.0121814 1.4018186l1 1c.3602699.3604945.9340154.3923692 1.332.074l5-4c.2790244-.223291.4177293-.5784781.3638658-.9317659-.0538634-.3532877-.2921121-.6510032-.625-.781-.3328878-.1299967-.7098414-.0725251-.9888658.1507659z"/><path id="Shape" d="m9 39c2.209139 0 4-1.790861 4-4s-1.790861-4-4-4-4 1.790861-4 4 1.790861 4 4 4zm0-6c1.1045695 0 2 .8954305 2 2s-.8954305 2-2 2-2-.8954305-2-2 .8954305-2 2-2z"/><path id="Shape" d="m14.633 22.774 11-9c.2828543-.2241791.4229611-.5833814.3665971-.9398725-.0563639-.3564912-.3004518-.6549494-.6386694-.7809323-.3382175-.1259829-.7180787-.0599401-.9939277.1728048l-11 9c-.2828543.2241791-.4229611.5833814-.3665971.9398725.0563639.3564912.3004518.6549494.6386694.7809323.3382175.1259829.7180787.0599401.9939277-.1728048z"/><path id="Shape" d="m56 4h-5.184c-.4222546-1.19435087-1.5492146-1.99474861-2.816-2h-.539c-.713316-1.23725712-2.0328457-1.99962936-3.461-1.99962936s-2.747684.76237224-3.461 1.99962936h-.539c-1.2680934.00261901-2.3969982.80382896-2.818 2h-5.182c-2.209139 0-4 1.790861-4 4h-12.4c-1.9770932.00475728-3.7675005 1.16887428-4.574 2.974l-3.126 7.026h-3.9c-1.65685425 0-3 1.3431458-3 3-.00603834.791224.30895066 1.5510944.873 2.106.55736367.5756704 1.32573273.8986238 2.127.894h1.238l-.919 2.069c-2.46854619.3354144-4.31173439 2.4397814-4.319 4.931v16c.00299829 2.3751008 1.6735832 4.4215673 4 4.9v3.1c.00330612 2.7600532 2.23994685 4.9966939 5 5h4c2.7600532-.0033061 4.9966939-2.2399468 5-5v-3h10c0 2.209139 1.790861 4 4 4h24c2.209139 0 4-1.790861 4-4v-44c0-2.209139-1.790861-4-4-4zm-16.693.287c.1824558-.18578362.4326157-.28938519.693-.287h1.18c.4273918-.0000244.8075251-.27166298.946-.676.2810797-.79385364 1.0318543-1.32447306 1.874-1.32447306s1.5929203.53061942 1.874 1.32447306c.1384749.40433702.5186082.6759756.946.676h1.18c.5522847 0 1 .44771525 1 1 .000531.26986642-.1105861.52793312-.307.713-.1824558.18578362-.4326157.28938519-.693.287h-8c-.5522847 0-1-.44771525-1-1-.000531-.26986642.1105861-.52793312.307-.713zm-11.307 33.713h-9v-1c0-.5522847.4477153-1 1-1h8zm-9 2h9v2h-9zm-6.146-28.211c.4828047-1.085367 1.5580975-1.7859128 2.746-1.789h12.4v16h-21.461c1.097-2.47 4.274-9.635 6.315-14.211zm-8.854 10.211c-.26966692.0009757-.52759393-.1102372-.712-.307-.18634664-.1821552-.2903543-.4324236-.288-.693 0-.5522847.44771525-1 1-1h3.016l-.889 2zm1 6h23v6h-8c-1.6568542 0-3 1.3431458-3 3v5h-15v-11c0-1.6568542 1.34314575-3 3-3zm11 27c0 1.6568542-1.3431458 3-3 3h-4c-1.65685425 0-3-1.3431458-3-3v-3h10zm-11-5c-1.65685425 0-3-1.3431458-3-3v-3h26v2h-3c-.5522847 0-1 .4477153-1 1s.4477153 1 1 1h3v2zm53 2c0 1.1045695-.8954305 2-2 2h-24c-1.1045695 0-2-.8954305-2-2v-44c0-1.1045695.8954305-2 2-2h5.184c.4222546 1.19435087 1.5492146 1.99474861 2.816 2h8c1.2680934-.00261901 2.3969982-.80382896 2.818-2h5.182c1.1045695 0 2 .8954305 2 2z"/><path id="Shape" d="m45 12h-12c-.5522847 0-1 .4477153-1 1s.4477153 1 1 1h12c.5522847 0 1-.4477153 1-1s-.4477153-1-1-1z"/><path id="Shape" d="m33 18h6c.5522847 0 1-.4477153 1-1s-.4477153-1-1-1h-6c-.5522847 0-1 .4477153-1 1s.4477153 1 1 1z"/><path id="Shape" d="m54.375 22.219-4.3 3.441-.367-.367c-.3923789-.3789722-1.0160848-.3735524-1.4018186.0121814s-.3911536 1.0094397-.0121814 1.4018186l1 1c.3602699.3604945.9340154.3923692 1.332.074l5-4c.2790244-.223291.4177293-.5784781.3638659-.9317659-.0538635-.3532877-.2921121-.6510033-.625-.781s-.7098415-.0725251-.9888659.1507659z"/><path id="Shape" d="m45 22h-12c-.5522847 0-1 .4477153-1 1s.4477153 1 1 1h12c.5522847 0 1-.4477153 1-1s-.4477153-1-1-1z"/><path id="Shape" d="m33 28h6c.5522847 0 1-.4477153 1-1s-.4477153-1-1-1h-6c-.5522847 0-1 .4477153-1 1s.4477153 1 1 1z"/><path id="Shape" d="m54.375 32.219-4.3 3.441-.367-.367c-.3923789-.3789722-1.0160848-.3735524-1.4018186.0121814s-.3911536 1.0094397-.0121814 1.4018186l1 1c.3602699.3604945.9340154.3923692 1.332.074l5-4c.4313344-.345178.501178-.9746656.156-1.406s-.9746656-.501178-1.406-.156z"/><path id="Shape" d="m45 32h-12c-.5522847 0-1 .4477153-1 1s.4477153 1 1 1h12c.5522847 0 1-.4477153 1-1s-.4477153-1-1-1z"/><path id="Shape" d="m33 38h6c.5522847 0 1-.4477153 1-1s-.4477153-1-1-1h-6c-.5522847 0-1 .4477153-1 1s.4477153 1 1 1z"/><path id="Shape" d="m54.375 42.219-4.3 3.441-.367-.367c-.3923789-.3789722-1.0160848-.3735524-1.4018186.0121814s-.3911536 1.0094397-.0121814 1.4018186l1 1c.3602699.3604945.9340154.3923692 1.332.074l5-4c.4313344-.345178.501178-.9746656.156-1.406s-.9746656-.501178-1.406-.156z"/><path id="Shape" d="m45 42h-12c-.5522847 0-1 .4477153-1 1s.4477153 1 1 1h12c.5522847 0 1-.4477153 1-1s-.4477153-1-1-1z"/><path id="Shape" d="m39 46h-6c-.5522847 0-1 .4477153-1 1s.4477153 1 1 1h6c.5522847 0 1-.4477153 1-1s-.4477153-1-1-1z"/></g></g></svg>