<svg enable-background="new 0 0 24 24" height="512" viewBox="0 0 24 24" width="512" xmlns="http://www.w3.org/2000/svg"><path d="m17.5 0c-3.584 0-6.5 2.916-6.5 6.5s2.916 6.5 6.5 6.5 6.5-2.916 6.5-6.5-2.916-6.5-6.5-6.5zm3.006 5.405-3.25 3.75c-.182.21-.443.334-.721.345h-.035c-.265 0-.52-.105-.707-.293l-1.75-1.75c-.391-.391-.391-1.023 0-1.414s1.023-.391 1.414 0l.99.991 2.547-2.938c.362-.418.994-.461 1.41-.101.418.361.463.993.102 1.41z" fill="#4caf50"/><path d="m17.5 0c-3.584 0-6.5 2.916-6.5 6.5s2.916 6.5 6.5 6.5v-4.127l-.244.282c-.182.21-.443.334-.721.345h-.035c-.265 0-.52-.105-.707-.293l-1.75-1.75c-.391-.391-.391-1.023 0-1.414.195-.195.451-.293.707-.293s.512.098.707.293l.99.991 1.053-1.215z" fill="#429846"/><path d="m14 20c0 2.209-1.791 4-4 4s-4-1.791-4-4 1.791-4 4-4 4 1.791 4 4z" fill="#ffa000"/><path d="m17.82 14.984c-.107.004-.212.016-.32.016-4.687 0-8.5-3.813-8.5-8.5 0-1.647.479-3.182 1.293-4.485-.098-.004-.194-.015-.293-.015-3.86 0-7 3.14-7 7v2.788c0 1.979-.867 3.847-2.388 5.133-.389.332-.612.817-.612 1.329 0 .965.785 1.75 1.75 1.75h16.5c.965 0 1.75-.785 1.75-1.75 0-.512-.223-.997-.622-1.338-.645-.546-1.165-1.204-1.558-1.928z" fill="#ffc107"/><path d="m10 20h-4c0 2.209 1.791 4 4 4z" fill="#de8b00"/><path d="m10 2c-3.86 0-7 3.14-7 7v2.788c0 1.979-.867 3.847-2.388 5.133-.389.332-.612.817-.612 1.329 0 .965.785 1.75 1.75 1.75h4.25 4v-9.502c-.638-1.193-1-2.554-1-3.998 0-1.439.365-2.791 1-3.979z" fill="#dea806"/></svg>