<svg id="Capa_1" enable-background="new 0 0 512.015 512.015" viewBox="0 0 512.015 512.015" xmlns="http://www.w3.org/2000/svg"><g><path d="m48.714 75.862c1.953 1.952 4.512 2.929 7.071 2.929s5.119-.977 7.071-2.929c3.905-3.905 3.905-10.237 0-14.143l-14.143-14.141c-3.905-3.904-10.237-3.904-14.142 0-3.905 3.905-3.905 10.237 0 14.143z"/><path d="m91.962 44.916c1.197 4.468 5.237 7.415 9.653 7.415.857 0 1.728-.111 2.594-.344 5.335-1.429 8.501-6.912 7.071-12.247l-5.176-19.319c-1.429-5.335-6.914-8.504-12.247-7.071-5.335 1.429-8.501 6.912-7.071 12.247z"/><path d="m29.327 124.632c4.415 0 8.456-2.947 9.653-7.414 1.43-5.335-1.736-10.818-7.071-12.248l-19.318-5.177c-5.335-1.433-10.818 1.736-12.248 7.07-1.43 5.335 1.736 10.818 7.071 12.248l19.318 5.177c.868.232 1.738.344 2.595.344z"/><path d="m507.182 406.162-54.29-93.94 23.922-1.945c5.191-.422 9.189-4.758 9.189-9.967v-62.602c0-5.209-3.998-9.545-9.189-9.967l-27.817-2.262c-4.953-22.109-13.595-42.954-25.761-62.141l18.085-21.286c3.372-3.97 3.133-9.862-.55-13.546l-44.267-44.266c-3.683-3.684-9.576-3.922-13.546-.55l-21.287 18.087c-19.185-12.165-40.028-20.806-62.139-25.759l-2.262-27.821c-.422-5.191-4.759-9.189-9.967-9.189h-62.602c-5.208 0-9.545 3.998-9.967 9.189l-2.262 27.823c-19.196 4.31-37.573 11.458-54.728 21.297-3.999 2.294-5.912 7.023-4.631 11.452l4.703 16.268c.867 2.999 3.085 5.421 5.997 6.549l9.853 3.813 2.3 20.345c.385 3.399 2.479 6.366 5.554 7.865 3.073 1.5 6.702 1.323 9.617-.467 19.468-11.959 41.899-18.279 64.867-18.279 63.282 0 116.275 47.812 123.339 109.975-5.709 3.063-10.662 7.697-14.132 13.707l-67.873 117.559c-13.242 4.679-27.131 7.049-41.334 7.049-68.454 0-124.146-55.691-124.146-124.146 0-22.092 5.881-43.787 17.008-62.742 2.494-4.249 1.522-9.682-2.292-12.802l-10.319-8.443c-3.439-2.815-8.321-3.021-11.985-.51l-19.388 13.285-11.486-14.175c-2.171-2.681-5.567-4.051-8.995-3.629-3.423.423-6.387 2.579-7.842 5.707-5.925 12.736-10.47 26.085-13.549 39.779l-27.819 2.262c-5.191.422-9.189 4.758-9.189 9.967v62.602c0 5.209 3.998 9.545 9.189 9.967l27.821 2.263c4.952 22.104 13.592 42.942 25.762 62.135l-18.089 21.291c-3.373 3.969-3.134 9.862.549 13.546l44.266 44.267c3.684 3.683 9.576 3.922 13.546.55l21.287-18.087c19.185 12.168 40.025 20.809 62.139 25.764l2.261 27.815c.422 5.191 4.759 9.189 9.967 9.189h62.602c5.208 0 9.545-3.998 9.967-9.189l2.262-27.825c3.48-.783 6.946-1.661 10.372-2.629 2.332.476 4.745.726 7.215.726h.032l158.44.068c.139.002.278.002.417.002 6.281 0 12.473-1.653 17.936-4.796 8.344-4.797 14.316-12.557 16.818-21.85 2.502-9.29 1.233-19.001-3.579-27.353zm-251.179-281.297c-21.501 0-42.604 4.775-61.829 13.908l-1.315-11.635c-.418-3.698-2.855-6.859-6.327-8.203l-10.879-4.211-1.097-3.794c15.467-7.992 31.943-13.627 49.083-16.778 4.447-.817 7.793-4.518 8.159-9.024l2.123-26.118h44.161l2.124 26.117c.367 4.507 3.711 8.207 8.159 9.024 24.66 4.534 47.667 14.071 68.383 28.346 3.722 2.564 8.703 2.312 12.149-.613l19.984-16.979 31.227 31.227-16.978 19.983c-2.927 3.445-3.179 8.426-.613 12.148 14.277 20.72 23.814 43.728 28.348 68.385.817 4.447 4.518 7.792 9.024 8.158l26.113 2.123v44.162l-24.187 1.967-13.059-22.596c-3.165-6.332-8.083-11.551-14.241-15.106-4.915-2.837-10.227-4.384-15.54-4.748-9.086-71.228-70.164-125.743-142.972-125.743zm24.204 328.026-2.123 26.118h-44.162l-2.122-26.111c-.366-4.506-3.711-8.207-8.158-9.024-24.661-4.536-47.669-14.074-68.383-28.351-3.722-2.566-8.704-2.313-12.15.612l-19.985 16.98-31.227-31.228 16.982-19.987c2.927-3.444 3.179-8.425.614-12.147-14.279-20.728-23.817-43.734-28.348-68.381-.818-4.447-4.518-7.792-9.025-8.158l-26.118-2.124v-44.162l26.111-2.123c4.506-.366 8.207-3.711 9.024-8.158 1.709-9.293 4.165-18.437 7.335-27.331l6.679 8.242c3.281 4.049 9.123 4.899 13.422 1.953l16.816-11.522c-8.884 19.015-13.533 39.864-13.533 61.021 0 79.482 64.663 144.146 144.146 144.146 9.357 0 18.6-.888 27.657-2.65-1.71 4.268-2.596 8.892-2.587 13.605.013 7.414 2.278 14.309 6.144 20.039-3.864 1.193-6.675 4.632-7.009 8.741zm211.242-24.573c-1.111 4.13-3.766 7.578-7.474 9.71-2.432 1.398-5.181 2.134-7.966 2.134-.115.001-.232-.002-.347-.002l-158.514-.068h-.015c-8.841 0-16.044-7.183-16.06-16.018-.005-2.9.716-5.685 2.089-8.059l79.368-137.469c4.434-7.678 14.295-10.312 21.986-5.872 2.8 1.617 5.023 3.997 6.428 6.883.104.214.215.423.333.628l78.582 135.973c2.137 3.71 2.702 8.029 1.59 12.16z"/><path d="m396.539 305.163c-5.523 0-10 4.478-10 10v54.996c0 5.522 4.477 10 10 10s10-4.478 10-10v-54.996c0-5.523-4.477-10-10-10z"/><path d="m396.539 400.155c-5.523 0-10 4.478-10 10v.008c0 5.522 4.477 9.996 10 9.996s10-4.481 10-10.004-4.477-10-10-10z"/></g><g/><g/><g/><g/><g/><g/><g/><g/><g/><g/><g/><g/><g/><g/><g/></svg>