<svg id="Capa_1" enable-background="new 0 0 512 512" height="512" viewBox="0 0 512 512" width="512" xmlns="http://www.w3.org/2000/svg"><g><g><g><path d="m474.5 370.227h-437c-16.569 0-30-13.431-30-30v-281.295c0-16.569 13.431-30 30-30h437c16.569 0 30 13.431 30 30v281.294c0 16.569-13.431 30.001-30 30.001z" fill="#e5edfc"/><path d="m349.11 483.068h-186.22c-4.529 0-6.725-5.54-3.425-8.643l11.276-10.604c23.771-22.353 31.154-57.122 18.517-87.206l-8.985-21.389h151.452l-8.985 21.389c-12.637 30.084-5.254 64.852 18.517 87.206l11.276 10.604c3.301 3.103 1.106 8.643-3.423 8.643z" fill="#d1d9fc"/><path d="m474.5 28.932h-30c16.569 0 30 13.431 30 30v281.294c0 16.569-13.431 30-30 30h30c16.569 0 30-13.431 30-30v-281.294c0-16.568-13.431-30-30-30z" fill="#d1d9fc"/><g><g><ellipse cx="256" cy="120.456" fill="#6fd8fd" rx="63.09" ry="63.521"/><path d="m256 56.935c-5.171 0-10.191.64-15 1.822 27.6 6.779 48.09 31.824 48.09 61.699 0 29.876-20.49 54.92-48.09 61.7 4.809 1.181 9.829 1.822 15 1.822 34.844 0 63.09-28.439 63.09-63.521 0-35.083-28.246-63.522-63.09-63.522z" fill="#28c1fd"/><path d="m252.205 92.797 24.813 24.982c1.471 1.481 1.471 3.872 0 5.353l-24.813 24.982c-2.389 2.405-6.493.714-6.493-2.677v-49.963c0-3.391 4.104-5.082 6.493-2.677z" fill="#fff"/></g></g><path d="m319.11 483.068h30c4.529 0 6.725-5.54 3.425-8.643l-11.276-10.604c-23.771-22.353-31.154-57.122-18.517-87.205l8.985-21.39h-151.453l8.985 21.389c3.218 7.66 5.13 15.625 5.812 23.611h84.581c3.83 0 6.982 3.078 6.995 6.908.072 21.043 8.639 41.667 24.612 56.687l11.276 10.604c3.299 3.103 1.104 8.643-3.425 8.643z" fill="#b6c9fd"/><path d="m37.5 370.227h437c16.569 0 30-13.431 30-30v-46.345h-497v46.345c0 16.568 13.431 30 30 30z" fill="#d1d9fc"/><path d="m474.5 293.882v46.345c0 16.569-13.431 30-30 30h30c16.569 0 30-13.431 30-30v-46.345z" fill="#b6c9fd"/></g></g><path d="m474.5 21.432h-437c-20.678 0-37.5 16.822-37.5 37.5v76.996c0 4.143 3.358 7.5 7.5 7.5s7.5-3.357 7.5-7.5v-76.996c0-12.406 10.093-22.5 22.5-22.5h437c12.407 0 22.5 10.094 22.5 22.5v227.449h-94.838c-4.142 0-7.5 3.357-7.5 7.5s3.358 7.5 7.5 7.5h94.838v38.846c0 12.406-10.093 22.5-22.5 22.5h-437c-12.407 0-22.5-10.094-22.5-22.5v-38.846h352.162c4.142 0 7.5-3.357 7.5-7.5s-3.358-7.5-7.5-7.5h-352.162v-115.453c0-4.143-3.358-7.5-7.5-7.5s-7.5 3.357-7.5 7.5v169.299c0 20.678 16.822 37.5 37.5 37.5h144.089c0 .001 21.475 45.403-15.988 80.628l-11.285 10.614c-3.752 3.535-4.947 8.916-3.045 13.71 1.902 4.792 6.462 7.889 11.618 7.889h186.22c5.156 0 9.716-3.097 11.618-7.889 1.902-4.794.707-10.175-3.049-13.714l-11.281-10.611c-37.387-35.154-15.987-80.627-15.987-80.627h144.09c20.678 0 37.5-16.822 37.5-37.5v-281.295c0-20.678-16.822-37.5-37.5-37.5zm-138.379 447.849 6.684 6.287h-173.61l6.683-6.286c24.868-23.383 33.372-59.682 21.85-91.555h116.544c-11.522 31.869-3.019 68.171 21.849 91.554zm-10.442-243.021c0-11.167-9.409-20.252-20.974-20.252h-13.039c-.003 0-.005 0-.008 0s-.005 0-.008 0c-4.142 0-7.5 3.357-7.5 7.5v49.067c0 4.143 3.358 7.5 7.5 7.5s7.5-3.357 7.5-7.5v-10.269l13.398 15.224c1.482 1.685 3.552 2.545 5.633 2.545 1.76 0 3.527-.616 4.952-1.87 3.109-2.736 3.412-7.476.675-10.585l-11.124-12.64c7.617-3.037 12.995-10.28 12.995-18.72zm-20.974 5.252c-1.316 0-3.386.008-5.489.017-.01-2.028-.017-4.009-.017-5.269 0-1.083-.004-3.118-.01-5.252h5.517c3.238 0 5.974 2.405 5.974 5.252s-2.737 5.252-5.975 5.252zm-173.534-25.504c-4.142 0-7.5 3.357-7.5 7.5v49.025c0 3.649 2.627 6.769 6.223 7.391.54.093 12.908.141 18.501.109 4.142-.023 7.481-3.4 7.458-7.542-.023-4.128-3.376-7.458-7.499-7.458-.014 0-.029 0-.043 0-3.275.019-6.725.032-9.639.038v-41.563c-.001-4.142-3.359-7.5-7.501-7.5zm121.13 5.34c-1.333-3.245-4.459-5.34-7.966-5.34-.002 0-.005 0-.007 0-3.51.003-6.636 2.104-7.964 5.354-.023.056-.045.112-.066.169l-18.424 48.376c-1.474 3.87.469 8.203 4.339 9.678.879.335 1.781.493 2.668.493 3.022 0 5.871-1.84 7.01-4.833l2.749-7.217h19.249l2.716 7.196c1.462 3.874 5.789 5.83 9.665 4.368 3.875-1.462 5.832-5.789 4.369-9.665l-18.257-48.378c-.028-.067-.054-.134-.081-.201zm-11.949 31.68 3.956-10.387 3.92 10.387zm103.862-36.588c-3.134.977-5.268 3.878-5.268 7.16v48.976c0 4.143 3.358 7.5 7.5 7.5s7.5-3.357 7.5-7.5v-24.917l19.447 28.16c2.15 3.105 5.757 4.416 9.19 3.346 3.491-1.092 5.747-4.326 5.746-8.314l-.458-47.414c-.04-4.118-3.39-7.428-7.498-7.428-.024 0-.049 0-.074 0-4.142.04-7.467 3.431-7.427 7.572l.246 25.443-20.5-29.686c-1.866-2.701-5.269-3.876-8.404-2.898zm-86.687-118.927c-3.238-3.261-8.074-4.237-12.323-2.485-4.248 1.751-6.993 5.851-6.993 10.445v49.965c0 4.594 2.745 8.694 6.993 10.445 4.188 1.726 8.985.875 12.322-2.483l24.813-24.982c4.359-4.391 4.359-11.533 0-15.924zm-4.316 48.945v-32.005l15.894 16.002zm-83.321 77.499v48.619c0 4.143 3.358 7.5 7.5 7.5h20.486c4.142 0 7.5-3.357 7.5-7.5s-3.358-7.5-7.5-7.5h-12.986v-9.31h11.476c4.142 0 7.5-3.357 7.5-7.5s-3.358-7.5-7.5-7.5h-11.476v-9.31h12.986c4.142 0 7.5-3.357 7.5-7.5s-3.358-7.5-7.5-7.5h-20.486c-4.142.001-7.5 3.358-7.5 7.501zm86.11-164.522c-38.923 0-70.59 31.859-70.59 71.021s31.667 71.021 70.59 71.021 70.59-31.86 70.59-71.021-31.667-71.021-70.59-71.021zm0 127.042c-30.652 0-55.59-25.131-55.59-56.021s24.938-56.021 55.59-56.021 55.59 25.131 55.59 56.021-24.938 56.021-55.59 56.021z"/></g></svg>