<svg id="Layer_1" enable-background="new 0 0 64 64" height="512" viewBox="0 0 64 64" width="512" xmlns="http://www.w3.org/2000/svg"><g><path d="m8.58 13.6c-2.31 0-4.18 1.87-4.18 4.18s1.87 4.19 4.18 4.19 4.19-1.88 4.19-4.19-1.88-4.18-4.19-4.18zm0 6.51c-1.28 0-2.32-1.04-2.32-2.33 0-1.28 1.04-2.32 2.32-2.32 1.29 0 2.33 1.04 2.33 2.32 0 1.29-1.04 2.33-2.33 2.33z" fill="#2a2f64"/><path d="m10.91 17.78c0 1.29-1.04 2.33-2.33 2.33-1.28 0-2.32-1.04-2.32-2.33 0-1.28 1.04-2.32 2.32-2.32 1.29 0 2.33 1.05 2.33 2.32z" fill="#ffe4aa"/><path d="m56.23 55.02c-.71-.21-1.52-.6-2.24-.99.22-.37.41-.78.55-1.23.55-.46.86-1.28.95-1.75 0 0 0 0 0-.01.16-.82-.07-1.43-.46-1.79l.01-.21c.04-.97-.29-1.87-.93-2.54-.67-.71-1.63-1.1-2.68-1.1h-.56c-1.05 0-2.01.39-2.68 1.1-.64.67-.97 1.57-.92 2.53v.21c-.38.36-.61.97-.45 1.79.08.48.38 1.3.94 1.76.14.46.33.87.55 1.24-.46.24-1.01.52-1.57.75-.47-.47-1.04-.85-1.78-1.07-1.07-.33-2.26-.93-3.13-1.41.34-.52.64-1.12.85-1.8.68-.51 1.05-1.54 1.17-2.12.04-.21.07-.42.07-.61 0-.71-.27-1.21-.65-1.52l.01-.37c.06-1.16-.34-2.25-1.1-3.05-.81-.85-1.96-1.31-3.22-1.31h-.72c-1.27 0-2.41.47-3.22 1.31-.76.8-1.16 1.88-1.1 3.04l.01.38c-.48.39-.78 1.11-.59 2.12.11.59.48 1.61 1.17 2.12.2.68.5 1.28.85 1.8-.9.5-2.07 1.08-3.13 1.41-.74.22-1.31.61-1.78 1.07-.56-.22-1.11-.5-1.57-.75.22-.37.41-.78.55-1.25.56-.45.86-1.27.95-1.74.04-.18.05-.34.05-.51 0-.57-.2-1-.5-1.29l.01-.21c.04-.97-.29-1.87-.93-2.54-.67-.71-1.63-1.1-2.68-1.1h-.56c-1.05 0-2 .39-2.68 1.1-.64.67-.97 1.57-.92 2.53l.01.21c-.39.36-.61.97-.46 1.79.08.48.38 1.3.94 1.76.14.45.33.87.56 1.23-.65.35-1.48.76-2.25.99-2.89.87-2.92 4.61-2.92 4.77 0 .42.28.78.68.89 2.43.68 4.87 1.02 7.31 1.02 1.98 0 3.96-.23 5.92-.68 2.21.45 4.43.67 6.63.67 2.22 0 4.44-.22 6.64-.67 1.97.45 3.94.68 5.92.68 2.44 0 4.89-.34 7.32-1.02.4-.11.68-.48.68-.89 0-.13-.03-3.87-2.92-4.74zm-32.18-5.27-.03-.78c-.03-.47.11-.88.4-1.17.33-.34.8-.52 1.34-.52h.56c.54 0 1.02.19 1.34.52.29.3.43.71.41 1.18l-.03.77c-.02.36.2.7.52.87-.01.02-.01.05-.02.07-.05.28-.18.53-.26.63-.27.11-.48.34-.55.64-.29 1.18-.99 2.01-1.7 2.01s-1.41-.83-1.7-2.01c-.07-.3-.28-.53-.55-.64-.08-.1-.2-.35-.26-.63 0-.02-.01-.05-.01-.07.34-.16.55-.5.54-.87zm4.68 9.95c-2.91.32-5.83.12-8.75-.61.13-.78.49-1.98 1.53-2.28 1.1-.34 2.25-.93 3.06-1.4.46.27.96.43 1.48.43.53 0 1.03-.15 1.49-.42.48.28 1.15.63 1.85.94-.67 1.5-.69 3.05-.69 3.16 0 .07.02.11.03.18zm6.44-11.67c-.03-.15-.03-.25-.03-.31.41-.12.68-.5.67-.93l-.04-.99c-.04-.66.17-1.24.59-1.68.46-.48 1.12-.74 1.87-.74h.72c.75 0 1.42.26 1.87.74.42.44.62 1.02.6 1.69l-.04.98c-.02.42.27.79.66.92.01.07 0 .17-.03.32-.08.45-.31.83-.43.96-.3.1-.53.34-.61.66-.39 1.62-1.38 2.75-2.39 2.75s-1.99-1.13-2.39-2.75c-.07-.32-.31-.56-.61-.66-.1-.13-.32-.51-.41-.96zm-4.55 10.79c.09-.65.32-1.64.87-2.39.01-.01.01-.01.01-.01.31-.42.73-.76 1.28-.93 1.41-.42 2.93-1.22 3.94-1.82.58.38 1.22.59 1.88.59.67 0 1.31-.2 1.89-.59 1.02.6 2.53 1.39 3.94 1.82 1.55.47 2.01 2.3 2.15 3.33-5.3 1.36-10.66 1.36-15.96 0zm18.54-9.07-.04-.78c-.02-.47.12-.88.41-1.17.33-.34.8-.52 1.34-.52h.56c.54 0 1.02.19 1.34.52.29.3.43.71.41 1.18l-.03.77c-.02.36.2.7.52.87-.01.02-.01.05-.02.07-.06.28-.18.53-.26.63-.27.11-.48.34-.55.64-.29 1.18-.99 2.01-1.7 2.01s-1.41-.83-1.7-2.01c-.07-.3-.28-.53-.55-.64-.08-.1-.21-.35-.26-.63-.01-.02-.01-.05-.01-.07.33-.16.55-.5.54-.87zm-.69 9.94c.01-.06.03-.1.03-.17 0-.11-.02-1.66-.69-3.16.71-.31 1.37-.66 1.85-.94.46.27.96.42 1.49.42.52 0 1.02-.16 1.48-.43.72.41 1.91 1.04 3.06 1.4 1.03.31 1.4 1.5 1.53 2.28-2.91.72-5.84.93-8.75.6z" fill="#2a2f64"/><path d="m57.22 59.09c-2.91.72-5.84.92-8.75.6.01-.06.03-.1.03-.17 0-.11-.02-1.66-.69-3.16.71-.31 1.37-.66 1.85-.94.46.27.96.42 1.49.42.52 0 1.02-.16 1.48-.43.72.41 1.91 1.04 3.06 1.4 1.03.31 1.4 1.5 1.53 2.28z" fill="#4dbde5"/><path d="m46.58 58.82c-5.3 1.36-10.66 1.36-15.96 0 .09-.65.32-1.64.87-2.39.01-.01.01-.01.01-.01.31-.42.73-.76 1.28-.93 1.41-.42 2.93-1.22 3.94-1.82.58.38 1.22.59 1.88.59.67 0 1.31-.2 1.89-.59 1.02.6 2.53 1.39 3.94 1.82 1.54.47 2.01 2.31 2.15 3.33z" fill="#f7ae48"/><path d="m28.7 59.52c0 .07.02.11.03.18-2.91.32-5.83.12-8.75-.61.13-.78.49-1.98 1.53-2.28 1.1-.34 2.25-.93 3.06-1.4.46.27.96.43 1.48.43.53 0 1.03-.15 1.49-.42.48.28 1.15.63 1.85.94-.67 1.5-.69 3.05-.69 3.16z" fill="#4dbde5"/><path d="m28.57 50.62c-.01.02-.01.05-.02.07-.05.28-.18.53-.26.63-.27.11-.48.34-.55.64-.29 1.18-.99 2.01-1.7 2.01s-1.41-.83-1.7-2.01c-.07-.3-.28-.53-.55-.64-.08-.1-.2-.35-.26-.63 0-.02-.01-.05-.01-.07.33-.17.53-.5.52-.88l-.03-.78c-.03-.47.11-.88.4-1.17.33-.34.8-.52 1.34-.52h.56c.54 0 1.02.19 1.34.52.29.3.43.71.41 1.18l-.03.77c0 .37.22.71.54.88z" fill="#efd299"/><path d="m53.68 50.62c-.01.02-.01.05-.02.07-.06.28-.18.53-.26.63-.27.11-.48.34-.55.64-.29 1.18-.99 2.01-1.7 2.01s-1.41-.83-1.7-2.01c-.07-.3-.28-.53-.55-.64-.08-.1-.21-.35-.26-.63-.01-.02-.01-.05-.01-.07.32-.17.53-.5.52-.88l-.04-.78c-.02-.47.12-.88.41-1.17.33-.34.8-.52 1.34-.52h.56c.54 0 1.02.19 1.34.52.29.3.43.71.41 1.18l-.03.77c0 .37.22.71.54.88z" fill="#efd299"/><path d="m42.05 47.72c.01.07 0 .17-.03.32-.08.45-.31.83-.43.96-.3.1-.53.34-.61.66-.39 1.62-1.38 2.75-2.39 2.75s-1.99-1.13-2.39-2.75c-.07-.32-.31-.56-.61-.66-.12-.13-.34-.51-.43-.96-.03-.15-.03-.25-.03-.31.41-.12.68-.5.67-.93l-.04-.99c-.04-.66.17-1.24.59-1.68.46-.48 1.12-.74 1.87-.74h.72c.75 0 1.42.26 1.87.74.42.44.62 1.02.6 1.69l-.04.98c0 .42.29.79.68.92z" fill="#ffe4aa"/><path d="m50.49 59.83c1.76-.06 3.52-.31 5.27-.74-.13-.78-.49-1.98-1.53-2.28-.86-.27-1.74-.69-2.44-1.05.29-.07.58-.19.84-.34.72.41 1.91 1.04 3.06 1.4 1.03.31 1.4 1.5 1.53 2.28-2.24.54-4.48.8-6.73.73z" fill="#37a7d9"/><path d="m37.87 59.83c2.42-.06 4.85-.39 7.26-1.01-.14-1.02-.61-2.86-2.15-3.33-1.12-.34-2.3-.91-3.25-1.43.26-.1.52-.23.76-.39 1.02.6 2.53 1.39 3.94 1.82 1.55.47 2.01 2.3 2.15 3.33-2.89.75-5.81 1.08-8.71 1.01z" fill="#ec9b3b"/><path d="m28.7 59.52c0 .07.02.11.03.18-1.15.12-2.29.17-3.44.14.66-.02 1.32-.07 1.98-.14-.01-.07-.03-.11-.03-.18 0-.11.02-1.66.69-3.16-.45-.2-.88-.4-1.25-.61.3-.07.58-.18.85-.34.48.28 1.15.63 1.85.94-.66 1.51-.68 3.06-.68 3.17z" fill="#37a7d9"/><path d="m28.57 50.62c-.01.02-.01.05-.02.07-.05.28-.18.53-.26.63-.27.11-.48.34-.55.64-.29 1.18-.99 2.01-1.7 2.01-.25 0-.49-.1-.73-.29.42-.34.78-.96.97-1.72.07-.3.28-.53.55-.64.08-.1.21-.35.26-.63.01-.03.01-.06.02-.07-.32-.17-.54-.5-.52-.87l.03-.77c.02-.48-.12-.89-.41-1.18-.23-.24-.54-.4-.89-.47.14-.04.29-.06.45-.06h.56c.54 0 1.02.19 1.34.52.29.3.43.71.41 1.18l-.03.77c-.02.37.2.71.52.88z" fill="#dec089"/><path d="m53.68 50.62c-.01.02-.01.05-.02.07-.06.28-.18.53-.26.63-.27.11-.48.34-.55.64-.29 1.18-.99 2.01-1.7 2.01-.25 0-.49-.1-.73-.29.42-.34.78-.96.97-1.72.07-.3.28-.53.55-.64.08-.1.2-.35.26-.63.01-.03.01-.06.02-.07-.32-.17-.54-.5-.52-.87l.03-.77c.02-.48-.12-.89-.41-1.18-.23-.24-.54-.4-.89-.47.14-.04.29-.06.45-.06h.56c.54 0 1.02.19 1.34.52.29.3.43.71.41 1.18l-.03.77c-.02.37.2.71.52.88z" fill="#dec089"/><path d="m42.05 47.72c.01.07 0 .17-.03.32-.08.45-.31.83-.43.96-.3.1-.53.34-.61.66-.39 1.62-1.38 2.75-2.39 2.75-.24 0-.49-.07-.73-.2.74-.38 1.37-1.32 1.67-2.55.07-.32.31-.56.61-.66.12-.13.34-.51.43-.96.03-.15.04-.25.03-.32-.39-.13-.68-.5-.66-.92l.04-.98c.03-.67-.18-1.25-.6-1.69-.38-.39-.9-.64-1.5-.72.12-.01.24-.02.36-.02h.72c.75 0 1.42.26 1.87.74.42.44.62 1.02.6 1.69l-.04.98c-.02.42.27.79.66.92z" fill="#efd299"/><g fill="#2a2f64"><path d="m56.77 7.54c0 .51-.41.93-.93.93h-34.6c-.51 0-.93-.42-.93-.93 0-.52.42-.93.93-.93h34.6c.52 0 .93.41.93.93z"/><path d="m56.77 11.81c0 .51-.41.93-.93.93h-11.31c-.51 0-.93-.42-.93-.93s.42-.93.93-.93h11.31c.52 0 .93.42.93.93z"/><path d="m56.77 19.39c0 .51-.41.93-.93.93h-16.9c-.51 0-.93-.42-.93-.93s.42-.93.93-.93h16.9c.52 0 .93.42.93.93z"/><path d="m56.77 23.66c0 .51-.41.93-.93.93h-26.22c-.51 0-.93-.42-.93-.93s.42-.93.93-.93h26.22c.52 0 .93.42.93.93z"/><path d="m63.07 27.05h-1.57v-22.9h1.57c.52 0 .93-.42.93-.93 0-.52-.41-.93-.93-.93h-49.07c-.51 0-.93.41-.93.93 0 .51.42.93.93.93h1.57v19.25l-8.99.08c-3.63 0-6.58 2.96-6.58 6.59v9.23c0 1.52 1.1 2.78 2.54 3.04l-.42 16.53c-.02.75.26 1.46.78 2s1.23.84 1.98.84c1.4 0 2.58-1.05 2.75-2.44l.95-8.11.95 8.11c.17 1.39 1.34 2.44 2.76 2.44.75 0 1.45-.3 1.98-.84.52-.54.8-1.25.78-1.99l-.42-27.08c-.02-.95.71-1.72 1.65-1.78l1.54-.09c.7-.04 1.36-.34 1.85-.86l.13-.15h43.27c.52 0 .93-.42.93-.93 0-.52-.41-.94-.93-.94zm-44.32.26c-.01.01-.02.03-.04.04l-.4.44c-.16.17-.37.26-.61.28l-1.53.08c-1.95.11-3.44 1.72-3.41 3.67l.43 27.09c0 .25-.08.48-.26.66-.17.18-.4.27-.65.27-.46 0-.85-.34-.89-.8l-1.88-15.97c-.06-.47-.46-.82-.93-.82s-.87.35-.92.82l-1.88 15.98c-.05.46-.44.8-.89.8-.25 0-.48-.09-.65-.27s-.26-.41-.25-.66l.66-25.47c.02-.52-.39-.95-.9-.96-.53-.04-.94.39-.96.9l-.19 7.03c-.43-.19-.73-.62-.73-1.12v-9.23c0-2.61 2.12-4.72 4.73-4.72l9.7-.09c.07 0 .12-.01.19-.02.01 0 .02.01.03.01.04 0 .07-.02.1-.02.72-.07 1.38-.38 1.87-.87l5.4-4.92c.32-.28.81-.26 1.1.05.28.3.28.76 0 1.06zm40.88-.26h-38.11l4.84-5.24c.73-.78.89-1.9.48-2.83l6.5-6.65c.36-.36.35-.95-.01-1.31-.37-.36-.96-.35-1.32.01l-6.47 6.62c-.94-.45-2.1-.32-2.91.42l-5.2 4.72v-18.64h42.19v22.9z"/></g><path d="m24.99 20.55-6.24 6.76c-.01.01-.02.03-.04.04l-.4.44c-.16.17-.37.26-.61.28l-1.53.08c-1.95.11-3.44 1.72-3.41 3.67l.43 27.09c0 .25-.08.48-.26.66-.17.18-.4.27-.65.27-.46 0-.85-.34-.89-.8l-1.88-15.97c-.06-.47-.46-.82-.93-.82s-.87.35-.92.82l-1.88 15.98c-.05.46-.44.8-.89.8-.25 0-.48-.09-.65-.27s-.26-.41-.25-.66l.66-25.47c.02-.52-.39-.95-.9-.96-.53-.04-.94.39-.96.9l-.19 7.03c-.43-.19-.73-.62-.73-1.12v-9.23c0-2.61 2.12-4.72 4.73-4.72l9.7-.09c.07 0 .12-.01.19-.02.01 0 .02.01.03.01.04 0 .07-.02.1-.02.72-.07 1.38-.38 1.87-.87l5.4-4.92c.32-.28.81-.26 1.1.05.28.3.28.76 0 1.06z" fill="#f16e61"/><path d="m24.99 20.55-.38.41c-.25-.07-.52-.01-.72.17l-5.4 4.92c-.49.48-1.16.79-1.87.87-.04 0-.07.02-.1.02-.01 0-.02-.01-.03-.01-.07.01-.12.02-.19.02l-9.7.09c-2.61 0-4.73 2.11-4.73 4.72v-1.69c0-2.61 2.12-4.72 4.73-4.72l9.7-.09c.07 0 .12-.01.19-.02.01 0 .02.01.03.01.04 0 .07-.02.1-.02.72-.07 1.38-.38 1.87-.87l5.4-4.92c.32-.28.81-.26 1.1.05.28.3.28.76 0 1.06z" fill="#e15f5a"/><path d="m13.19 58.92c0 .07-.01.14-.03.2-.03.17-.1.33-.23.46-.17.18-.4.27-.65.27-.46 0-.85-.34-.89-.8l-.26-2.21c.06.46.7.79 1.16.79.25 0 .48-.09.65-.27.12-.12.2-.27.23-.43z" fill="#e15f5a"/><path d="m6.04 56.83-.26 2.22c-.05.46-.44.8-.89.8-.25 0-.48-.09-.65-.27-.1-.11-.18-.24-.21-.39-.03-.08-.04-.18-.04-.27l.05-1.9c.05.13.11.25.2.34.18.18.4.27.65.27.45 0 1.1-.34 1.15-.8z" fill="#e15f5a"/><path d="m17.44 4.15v18.63l5.2-4.72c.81-.74 1.97-.87 2.91-.42l6.47-6.62c.36-.36.95-.37 1.32-.01.36.36.37.95.01 1.31l-6.5 6.65c.4.93.24 2.05-.48 2.83l-4.84 5.24h38.11v-22.89zm38.4 20.44h-26.22c-.51 0-.93-.42-.93-.93s.42-.93.93-.93h26.22c.52 0 .93.42.93.93s-.41.93-.93.93zm0-4.26h-16.9c-.51 0-.93-.42-.93-.93s.42-.93.93-.93h16.9c.52 0 .93.42.93.93s-.41.93-.93.93zm0-7.59h-11.31c-.51 0-.93-.42-.93-.93s.42-.93.93-.93h11.31c.52 0 .93.42.93.93s-.41.93-.93.93zm0-4.27h-34.6c-.51 0-.93-.42-.93-.93 0-.52.42-.93.93-.93h34.6c.52 0 .93.41.93.93 0 .51-.41.93-.93.93z" fill="#d6e8f2"/><path d="m59.63 4.15v22.9h-38.11l1.34-1.45h35.24v-20h-39.13v15.8l-1.53 1.39v-18.64z" fill="#b6d9e7"/></g></svg>