<svg id="Line" viewBox="0 0 64 64" xmlns="http://www.w3.org/2000/svg"><path d="m6 52.1377s5.34961 0 5.34961 0c1.25031 0 2.30829-.79919 2.71503-1.91016h1.91583c.37988 0 .74219.09863 1.07617.29395l7.71973 4.49902c4.14506 2.42289 9.20702 2.6327 13.53223.58008 0 0 19.43945-9.20801 19.43945-9.20801 4.30615-2.0997 1.85176-8.60461-2.77552-7.32514.00013-.00006-10.73364 3.11774-10.73364 3.11774-.61761-1.72565-2.25305-2.97131-4.18811-2.97131h-7.22852c-.60059 0-1.18652-.1709-1.69434-.49219l-3.57422-2.27051c-1.49609-.94922-3.22461-1.45117-4.99707-1.45117h-8.49432c-.40863-1.10675-1.46509-1.90234-2.71271-1.90234h-5.34961c-1.10254 0-2 .89746-2 2v15.04004c0 1.10254.89746 2 2 2zm0-17.04004h5.34961c.49609 0 .90039.40332.90039.89941.00071.55352.45055 1.00246 1.00391 1.00293h9.30274c1.39258 0 2.75.39453 3.9248 1.13965l3.5752 2.27051c.8291.52539 1.78613.80371 2.76562.80371h7.22852c3.24108.08224 3.25476 4.84252-.00008 4.92871h-10.3466c-.55273 0-1 .44727-1 1s.44727 1 1 1h10.34668c2.28125 0 4.14728-1.72748 4.41077-3.93988l11.07458-3.21637c2.23436-.63211 3.4835 2.58658 1.35831 3.59767.00009-.00002-19.44229 9.20994-19.44229 9.20994-3.73633 1.77148-8.09961 1.58594-11.66699-.50098l-7.7207-4.5c-.63477-.37012-1.35547-.56543-2.08398-.56543h-1.73047v-7.23047c-.01526-1.31051-1.98167-1.31608-1.99999.00005 0-.00005 0 8.24019 0 8.24019 0 .49609-.4043.90039-.90039.90039h-5.34961v-15.04004z"/><path d="m9.125 37.31409c-1.31448.02233-1.31434 1.97794.00004 2.00006 1.31449-.02231 1.31425-1.97791-.00004-2.00006z"/><path d="m35 23v-14s5.99902 0 5.99902 0c.55273 0 1-.44727 1-1s-.44727-1-1-1h-6.99902c-.55273 0-1 .44727-1 1v14h-4c-.39648 0-.75586.23438-.91504.59766-.16016.3623-.08984.78613.17773 1.07812l10.99902 12c.37588.42739 1.09875.42945 1.47461-.00002 0 .00002 11.00098-11.99998 11.00098-11.99998.58756-.60382.10826-1.70329-.73735-1.67576.00004-.00002-4.00093-.00002-4.00093-.00002v-14c0-.55273-.44727-1-1-1s-1 .44727-1 1v15c0 .55273.44727 1 1 1h2.72754l-8.72754 9.52051-8.72559-9.52051h2.72656c.55273 0 1-.44727 1-1z"/></svg>