<svg id="Flat" height="512" viewBox="0 0 16 16" width="512" xmlns="http://www.w3.org/2000/svg"><path d="m13.5 8.79v-2.79a5.5 5.5 0 0 0 -11 0v2.79l-1.44 1.44a1.94 1.94 0 0 0 -.56 1.36 1.9163 1.9163 0 0 0 1.91 1.91h3.14a2.5006 2.5006 0 0 0 4.9 0h3.14a1.9163 1.9163 0 0 0 1.91-1.91 1.94 1.94 0 0 0 -.56-1.36zm-3.1465-2.7695-2.667 2.666a.5.5 0 0 1 -.707 0l-1.333-1.333a.5.5 0 0 1 .707-.707l.9795.98 2.3135-2.313a.5.5 0 1 1 .707.707z" fill="#00da80"/><path d="m13.5 8.79v-2.79a5.51 5.51 0 0 0 -5.5-5.5v6.4592l1.6465-1.6457a.5.5 0 1 1 .707.707l-2.3535 2.3527v7.1268a2.5 2.5 0 0 0 2.45-2h3.14a1.9163 1.9163 0 0 0 1.91-1.91 1.94 1.94 0 0 0 -.56-1.36z" fill="#00aa59"/></svg>