<svg id="Capa_1" enable-background="new 0 0 511.88 511.88" height="512" viewBox="0 0 511.88 511.88" width="512" xmlns="http://www.w3.org/2000/svg"><g><path d="m22.53 82.765h481.88v338.83h-481.88z" fill="#ecf4ff"/><path d="m255.94 82.765h248.47v338.83h-248.47z" fill="#d5e7fd"/><path d="m361.352 421.595v60.23c0 8.29-15.674 7.42-25.352 7.42l-166.726-.17c-9.678 0-18.745 1.04-18.745-7.25v-60.23c0-8.29 7.834-15 17.512-15h175.799c9.678 0 17.512 6.71 17.512 15z" fill="#3f558f"/><path d="m361.352 421.595v60.23c0 8.29-8.123 9.122-17.801 9.122l-87.611 1.702v-86.054h87.9c9.678 0 17.512 6.71 17.512 15z" fill="#1c3470"/><path d="m421.53 481.825c0 8.29-6.72 15-15 15h-301.18c-8.28 0-15-6.71-15-15 0-8.28 6.72-15 15-15h150.59l116.064 10.335c8.28 0 49.526-3.615 49.526 4.665z" fill="#5a729e"/><path d="m421.53 481.825c0 8.29-6.72 15-15 15h-150.59v-30h150.59c8.28 0 15 6.72 15 15z" fill="#3f558f"/><path d="m511.88 82.765v338.83c0 8.28-6.72 15-15 15h-481.88c-8.28 0-15-6.72-15-15v-338.83c0-8.29 6.72-15 15-15h90.35c8.28 0 15 6.71 15 15 0 8.28-6.72 15-15 15h-75.35v308.83h451.88v-308.83h-67.82c-8.28 0-15-6.72-15-15 0-8.29 6.72-15 15-15h82.82c8.28 0 15 6.71 15 15z" fill="#5a729e"/><path d="m511.88 82.765v338.83c0 8.28-6.72 15-15 15h-240.94v-30h225.94v-308.83h-67.82c-8.28 0-15-6.72-15-15 0-8.29 6.72-15 15-15h82.82c8.28 0 15 6.71 15 15z" fill="#3f558f"/><path d="m368.82 102.845v70.27c0 6.21-3.82 11.77-9.62 14l-103.26 38.65c-3.987 0-2.468.028-103.27-38.65-5.79-2.23-9.61-7.79-9.61-14v-71.9c0-8.28 6.72-15 15-15s15 6.72 15 15c0 .215-7.406.068 165.77 1.51.06-8.23 6.75-14.88 14.99-14.88 8.28 0 15 6.72 15 15z" fill="#5a729e"/><path d="m368.82 102.845v70.27c0 6.21-3.82 11.77-9.62 14-100.43 38.678-99.307 38.65-103.26 38.65v-123.73l82.89.69c.06-8.23 6.75-14.88 14.99-14.88 8.28 0 15 6.72 15 15z" fill="#3f558f"/><path d="m429.06 82.765v105.41c0 8.29-6.72 15-15 15s-15-6.71-15-15l6.306-95.696-149.426 57.996c-3.661 0-2.149.014-155.54-53.55-13.365-4.684-13.366-23.635 0-28.32 153.2-53.596 151.877-53.55 155.54-53.55l146.532 59.551c6.13 2.04 26.588 1.699 26.588 8.159z" fill="#3f558f"/><path d="m429.06 82.765v105.41c0 8.29-6.72 15-15 15s-15-6.71-15-15v-84.6c-140.035 46.946-139.604 46.9-143.12 46.9v-135.42c3.487 0 1.856 0 162.86 53.48 6.13 2.04 10.26 7.77 10.26 14.23z" fill="#1c3470"/><path d="m135.469 271.062h-60.235c-8.284 0-15 6.716-15 15v60.235c0 8.284 6.716 15 15 15h60.235c8.284 0 15-6.716 15-15v-60.235c0-8.284-6.716-15-15-15z" fill="#fc6284"/><path d="m451.65 286.065c0 8.28-6.72 15-15 15h-240.95c-8.28 0-15-6.72-15-15 0-8.29 6.72-15 15-15h240.95c8.28 0 15 6.71 15 15z" fill="#01c1f0"/><path d="m451.65 346.295c0 8.29-6.72 15-15 15h-240.95c-8.28 0-15-6.71-15-15 0-8.28 6.72-15 15-15h240.95c8.28 0 15 6.72 15 15z" fill="#01c1f0"/><g fill="#00ade9"><path d="m451.65 346.295c0 8.29-6.72 15-15 15h-180.71v-30h180.71c8.28 0 15 6.72 15 15z"/><path d="m436.65 301.065h-180.71v-30h180.71c8.28 0 15 6.71 15 15 0 8.28-6.72 15-15 15z"/></g></g></svg>