<?xml version="1.0" encoding="UTF-8"?>
<svg xmlns="http://www.w3.org/2000/svg" id="Icons" viewBox="0 0 60 60" width="512" height="512"><path d="M55,12H48.722A1.993,1.993,0,0,0,47,11h-.418a5,5,0,0,0-9.164,0H37a1.993,1.993,0,0,0-1.722,1H29a5.006,5.006,0,0,0-5,5v1.93a8.909,8.909,0,0,0-6.3-4.754A6.977,6.977,0,0,0,20,9V7A7,7,0,0,0,6,7V9a6.976,6.976,0,0,0,2.285,5.158A10.009,10.009,0,0,0,0,24V35.5a3.5,3.5,0,0,0,5,3.162V55.3a4.606,4.606,0,0,0,4.26,4.692Q9.381,60,9.5,60A4.483,4.483,0,0,0,13,58.327a4.485,4.485,0,0,0,3.741,1.667A4.605,4.605,0,0,0,21,55.3V29.872l.042.1A4.963,4.963,0,0,0,24,32.716V55a5.006,5.006,0,0,0,5,5H55a5.006,5.006,0,0,0,5-5V17A5.006,5.006,0,0,0,55,12ZM8,9V7A5,5,0,0,1,18,7V9A5,5,0,0,1,8,9Zm3.877,11h2.245l.868,6.682-2,1.313L11,26.67Zm-.6-4h3.438l-.5,2H11.781ZM24,30.492a2.972,2.972,0,0,1-1.12-1.31l-1.961-4.576A1,1,0,0,0,19,25V55.3A2.64,2.64,0,0,1,16.637,58,2.5,2.5,0,0,1,14,55.5V40a1,1,0,0,0-2,0V55.5A2.5,2.5,0,0,1,9.364,58,2.64,2.64,0,0,1,7,55.3V24a1,1,0,0,0-2,0V35.5a1.5,1.5,0,0,1-3,0V24a8.01,8.01,0,0,1,7.229-7.961l.755,3.018-.968,7.358A2.009,2.009,0,0,0,9.9,28.348l1.975,1.312a2.019,2.019,0,0,0,2.244,0L16.1,28.348a2.011,2.011,0,0,0,.885-1.94l-.967-7.351.75-3a6.941,6.941,0,0,1,5.689,4.237L24,24ZM37,13h1.13a1,1,0,0,0,.969-.753,3,3,0,0,1,5.8,0A1,1,0,0,0,45.87,13L47,13v4H37Zm0,6H47a1.993,1.993,0,0,0,1.722-1H54V54H30V18h5.278A1.993,1.993,0,0,0,37,19ZM58,55a3,3,0,0,1-3,3H29a3,3,0,0,1-3-3V17a3,3,0,0,1,3-3h6v2H30a2,2,0,0,0-2,2V54a2,2,0,0,0,2,2H54a2,2,0,0,0,2-2V18a2,2,0,0,0-2-2H49V14h6a3,3,0,0,1,3,3Z"/><path d="M33.293,48.707A1,1,0,0,0,34,49l.071,0a1,1,0,0,0,.729-.4l3-4a1,1,0,0,0-1.6-1.2l-2.308,3.078-.185-.185a1,1,0,0,0-1.414,1.414Z"/><path d="M33.293,38.707A1,1,0,0,0,34,39l.071,0a1,1,0,0,0,.729-.4l3-4a1,1,0,0,0-1.6-1.2l-2.308,3.078-.185-.185a1,1,0,0,0-1.414,1.414Z"/><path d="M33.293,28.707A1,1,0,0,0,34,29l.071,0a1,1,0,0,0,.729-.4l3-4a1,1,0,0,0-1.6-1.2l-2.308,3.078-.185-.185a1,1,0,0,0-1.414,1.414Z"/><path d="M41,29h7a1,1,0,0,0,0-2H41a1,1,0,0,0,0,2Z"/><path d="M41,25H51a1,1,0,0,0,0-2H41a1,1,0,0,0,0,2Z"/><path d="M41,39h7a1,1,0,0,0,0-2H41a1,1,0,0,0,0,2Z"/><path d="M41,35H51a1,1,0,0,0,0-2H41a1,1,0,0,0,0,2Z"/><path d="M41,49h7a1,1,0,0,0,0-2H41a1,1,0,0,0,0,2Z"/><path d="M41,45H51a1,1,0,0,0,0-2H41a1,1,0,0,0,0,2Z"/></svg>
