<svg id="Icon_Set" enable-background="new 0 0 64 64" viewBox="0 0 64 64" xmlns="http://www.w3.org/2000/svg"><g id="Online_Course"><g stroke="#37474f" stroke-linecap="round" stroke-linejoin="round" stroke-miterlimit="10"><path d="m35 33.5v.3c0 .6.4 1 1 1h20c.6 0 1-.4 1-1v-14c0-.6-.4-1-1-1h-20c-.6 0-1 .4-1 1v5.1" fill="#64b5f6"/><g fill="none"><path d="m39 23.2h14"/><path d="m39 26.7h14"/><path d="m39 30.2h7"/><path d="m26 56.2v-3.4"/><path d="m38 52.8v3.4"/><path d="m42 62.2h-20c-.6 0-1-.4-1-1v-2c0-.6.4-1 1-1h20c.6 0 1 .4 1 1v2c0 .6-.4 1-1 1z"/><path d="m2 45.8h60"/></g><circle cx="17" cy="22.8" fill="#fff" r="6"/><path d="m35.7 30.2-1.4 1.4-2.8-2.8 1.4-1.4c.8-.8 2-.8 2.8 0 .8.7.8 2 0 2.8z" fill="#fff"/><path d="m23 43.8v-9.3l2.8 2.8c.4.4.9.6 1.4.6s1-.2 1.4-.6l5.7-5.7-2.8-2.8-4.3 4.2-2.7-2.7c-1-1-2.3-1.5-3.7-1.5h-.3l-3.5 4-3.5-4h-1.2c-2.9 0-5.3 2.3-5.3 5.2v9.7" fill="#ffca28"/><path d="m17 32.8v5" fill="none"/><path d="m11 43.8v-9.6" fill="none"/><path d="m2 25.8v20c0 2.8 2.2 5 5 5h50c2.8 0 5-2.2 5-5v-32c0-2.8-2.2-5-5-5h-2" fill="none"/><path d="m2 19.8v3" fill="none"/><path d="m37 8.8h-30c-2.8 0-5 2.2-5 5v3" fill="none"/><circle cx="46" cy="8.8" fill="#ef5350" r="7"/><path d="m62 13.8h-8.5" fill="none"/><path d="m38.5 13.8h-36.5" fill="none"/><path d="m48.6 7.9-3.6-2.2c-.7-.4-1.5.1-1.5.9v4.4c0 .8.9 1.3 1.5.9l3.6-2.2c.6-.5.6-1.4 0-1.8z" fill="#fff"/></g></g></svg>